<svg width="500" height="500" viewBox="0 0 500 500" fill="none" xmlns="http://www.w3.org/2000/svg">
<path d="M40.2881 451.941L92.7161 451.698L145.144 451.609L250 451.442L354.856 451.608L407.284 451.696L459.711 451.941L407.284 452.185L354.856 452.273L250 452.44L145.144 452.272L92.7161 452.184L40.2881 451.941Z" fill="#685E68"/>
<path d="M97.929 376.374H62.771V387.564H97.929V376.374Z" fill="#EBEBEB"/>
<path d="M277.266 102.953H242.108V114.143H277.266V102.953Z" fill="#EBEBEB"/>
<path d="M78.3172 401.674L60.8602 401.967L52.0282 402.087L43.1602 402.13L42.7062 402.132L42.7042 401.674L42.6602 390.484L42.6582 389.983L43.1592 389.985L60.7382 390.053L69.5272 390.138L78.3162 390.247L78.5592 390.25L78.5542 390.484L78.3172 401.674ZM78.3172 401.674L78.0802 390.484L78.3172 390.721L69.5282 390.83L60.7392 390.915L43.1602 390.983L43.6592 390.484L43.6152 401.674L43.1592 401.218L51.8702 401.261L60.6172 401.381L78.3172 401.674Z" fill="#EBEBEB"/>
<path d="M407.102 261.19L389.645 261.483L380.813 261.603L371.945 261.646L371.491 261.648L371.489 261.19L371.445 250L371.443 249.498L371.944 249.5L389.523 249.568L398.312 249.653L407.101 249.762L407.343 249.765L407.339 250L407.102 261.19ZM407.102 261.19L406.865 250L407.102 250.237L398.313 250.346L389.524 250.431L371.945 250.499L372.444 250L372.4 261.19L371.944 260.734L380.655 260.777L389.402 260.897L407.102 261.19Z" fill="#EBEBEB"/>
<path d="M387.49 275.3L370.033 275.593L361.201 275.713L352.333 275.756L351.879 275.758L351.877 275.3L351.833 264.11L351.831 263.609L352.332 263.611L369.911 263.679L378.7 263.764L387.489 263.873L387.731 263.876L387.726 264.11L387.49 275.3ZM387.49 275.3L387.253 264.11L387.49 264.347L378.701 264.456L369.912 264.541L352.333 264.609L352.832 264.11L352.788 275.3L352.332 274.844L361.043 274.887L369.79 275.007L387.49 275.3Z" fill="#EBEBEB"/>
<path d="M367.956 250H332.798V261.19H367.956V250Z" fill="#EBEBEB"/>
<path d="M456.84 390.484H421.683V401.674H456.84V390.484Z" fill="#EBEBEB"/>
<path d="M437.229 44.933H402.071V56.123H437.229V44.933Z" fill="#EBEBEB"/>
<path d="M456.841 70.233L439.384 70.526L430.552 70.646L421.684 70.689L421.23 70.691L421.228 70.233L421.184 59.043L421.182 58.542L421.684 58.544L439.263 58.612L448.052 58.697L456.841 58.806L457.084 58.809L457.079 59.044L456.841 70.233ZM456.841 70.233L456.604 59.043L456.841 59.28L448.052 59.389L439.263 59.474L421.684 59.542L422.183 59.043L422.139 70.233L421.683 69.777L430.393 69.82L439.14 69.94L456.841 70.233Z" fill="#EBEBEB"/>
<path d="M97.929 56.123L80.472 56.416L71.64 56.536L62.772 56.579L62.318 56.581L62.316 56.123L62.272 44.933L62.27 44.432L62.771 44.434L80.35 44.502L89.139 44.587L97.928 44.696L98.17 44.699L98.165 44.934L97.929 56.123ZM97.929 56.123L97.692 44.933L97.929 45.17L89.14 45.279L80.351 45.364L62.772 45.432L63.271 44.933L63.227 56.123L62.771 55.667L71.482 55.71L80.229 55.83L97.929 56.123Z" fill="#EBEBEB"/>
<path d="M71.1138 40.617V198.277H186.588V40.617H71.1138ZM182.327 194.016H75.3748V44.879H182.326L182.327 194.016Z" fill="#EBEBEB"/>
<path d="M182.326 44.879H75.375V194.016H182.326V44.879Z" fill="white"/>
<path d="M75.3717 131.575H182.324V127.315L75.3717 127.315V131.575Z" fill="#EBEBEB"/>
<path d="M63.2647 210.503L194.43 210.503V198.276L63.2647 198.276V210.503Z" fill="#DBDBDB"/>
<path d="M75.3711 44.874H182.323V154.304H75.3711V44.874ZM178.378 48.82H79.3171V150.359H178.378V48.82Z" fill="#DBDBDB"/>
<path d="M148.189 44.874H146.059V150.358H148.189V44.874Z" fill="#DBDBDB"/>
<path d="M111.636 44.874H109.506V150.358H111.636V44.874Z" fill="#DBDBDB"/>
<path d="M313.419 40.617V198.277H428.893V40.617H313.419ZM424.632 194.016H317.681V44.879H424.632V194.016Z" fill="#EBEBEB"/>
<path d="M424.632 44.879H317.681V194.016H424.632V44.879Z" fill="white"/>
<path d="M317.677 131.575H424.629V127.315L317.677 127.315V131.575Z" fill="#EBEBEB"/>
<path d="M305.57 210.503L436.735 210.503V198.276L305.57 198.276V210.503Z" fill="#DBDBDB"/>
<path d="M317.676 44.874H424.628V154.304H317.676V44.874ZM420.683 48.82H321.622V150.359H420.683V48.82Z" fill="#DBDBDB"/>
<path d="M390.494 44.874H388.364V150.358H390.494V44.874Z" fill="#DBDBDB"/>
<path d="M353.942 44.874H351.812V150.358H353.942V44.874Z" fill="#DBDBDB"/>
<path d="M122.643 353.04H82.391L59.353 238.188L96.208 221.255L122.643 353.04Z" fill="#DBDBDB"/>
<path d="M237.852 353.04H122.643L96.208 221.255H211.417L237.852 353.04Z" fill="#EBEBEB"/>
<path d="M101.977 291.418H40.2881V417.994H101.977V291.418Z" fill="#DBDBDB"/>
<path d="M267.458 417.994H250.604L225.491 291.418H267.458V417.994Z" fill="#DBDBDB"/>
<path d="M135.872 291.418H101.977V417.994H135.872V291.418Z" fill="#EBEBEB"/>
<path d="M301.353 291.418H267.458V417.994H301.353V291.418Z" fill="#EBEBEB"/>
<path d="M267.459 353.04H135.873V417.994H267.459V353.04Z" fill="#EBEBEB"/>
<path d="M267.459 324.959H135.873V353.303H267.459V324.959Z" fill="#EBEBEB"/>
<path d="M110.283 291.418L123.078 291.189L135.873 291.029L136.258 291.024L136.262 291.417L136.406 306.23L136.459 321.043C136.499 330.918 136.529 340.793 136.473 350.669C136.442 360.544 136.427 370.419 136.304 380.294C136.222 390.169 136.084 400.044 135.875 409.92C135.666 400.045 135.528 390.17 135.446 380.294C135.323 370.419 135.307 360.544 135.277 350.669C135.22 340.794 135.251 330.918 135.291 321.043L135.343 306.23L135.487 291.417L135.875 291.805L123.08 291.646L110.283 291.418Z" fill="#DBDBDB"/>
<path d="M267.458 291.418C267.722 301.33 267.845 311.242 267.947 321.154L268.096 350.889L267.949 380.625L267.771 395.493L267.458 410.361L267.145 395.493L266.967 380.625L266.82 350.889L266.969 321.154C267.071 311.242 267.195 301.33 267.458 291.418Z" fill="#DBDBDB"/>
<path d="M267.458 353.04C256.493 353.304 245.527 353.427 234.561 353.529L201.665 353.678L168.769 353.531L152.321 353.353L135.872 353.04L152.321 352.727L168.769 352.549L201.665 352.402L234.561 352.551C245.527 352.653 256.493 352.776 267.458 353.04Z" fill="#DBDBDB"/>
<path d="M267.458 324.959C256.493 325.223 245.527 325.346 234.561 325.449L201.665 325.598L168.769 325.451L152.321 325.273L135.872 324.96L152.321 324.647L168.769 324.469L201.665 324.322L234.561 324.471C245.527 324.572 256.493 324.696 267.458 324.959Z" fill="#DBDBDB"/>
<path d="M63.7319 417.993L62.8969 428.247L60.9489 451.941H52.0169L50.0689 428.247L49.2339 417.993H63.7319Z" fill="#C7C7C7"/>
<path d="M49.2339 417.993H63.7319L62.8969 428.247H50.0689L49.2339 417.993Z" fill="#A6A6A6"/>
<path d="M126.174 417.993L125.339 428.247L123.391 451.941H114.459L112.511 428.247L111.676 417.993H126.174Z" fill="#C7C7C7"/>
<path d="M111.676 417.993H126.174L125.339 428.247H112.511L111.676 417.993Z" fill="#A6A6A6"/>
<path d="M229.743 417.993L228.908 428.247L226.96 451.941H218.028L216.08 428.247L215.246 417.993H229.743Z" fill="#C7C7C7"/>
<path d="M215.246 417.993H229.743L228.908 428.247H216.08L215.246 417.993Z" fill="#A6A6A6"/>
<path d="M292.199 417.993L291.364 428.247L289.416 451.941H280.484L278.536 428.247L277.702 417.993H292.199Z" fill="#C7C7C7"/>
<path d="M292.199 417.993L291.364 428.247H278.536L277.702 417.993H292.199Z" fill="#A6A6A6"/>
<path d="M80.566 271.436C80.955 265.746 81.651 260.049 82.972 254.495C84.166 249.48 85.859 244.352 89.021 240.206C91.909 236.42 96.056 233.404 100.876 232.814C105.519 232.246 109.88 234.316 113.353 237.243C117.656 240.87 120.952 245.672 124.045 250.325C127.505 255.531 130.449 260.941 133.281 266.502C133.374 266.685 133.094 266.84 133.002 266.656C130.665 261.957 127.791 257.388 124.742 253.12C121.861 249.086 118.783 245.067 115.23 241.597C112.043 238.484 107.993 235.572 103.374 235.424C98.78 235.278 94.538 237.858 91.771 241.403C88.678 245.365 87.105 250.314 85.926 255.135C84.632 260.428 83.986 265.841 83.545 271.265C82.637 282.425 82.392 293.65 82.139 304.84C81.996 311.172 81.91 317.506 81.853 323.84C81.824 327.049 81.798 330.258 81.775 333.467C81.752 336.559 81.914 339.694 81.405 342.749C81.301 343.372 80.281 343.312 80.177 342.719C79.667 339.827 79.792 336.855 79.752 333.924C79.71 330.882 79.671 327.841 79.644 324.799C79.591 318.886 79.561 312.971 79.578 307.058C79.613 295.193 79.756 283.278 80.566 271.436Z" fill="#685E68"/>
<path d="M96.4999 263.021C97.0919 259.866 98.1569 255.753 99.9539 253.308C103.182 248.915 106.668 250.826 103.446 255.69C99.9269 261.002 99.4189 265.198 98.9139 267.686C98.9139 267.686 104.341 275.445 110.89 279.264C110.61 276.282 109.769 271.694 110.35 267.268C111.609 257.684 117.401 258.223 115.97 265.836C114.819 271.942 114.346 278.423 114.658 281.234C116.626 282.726 119.98 284.008 121.658 284.665C121.282 283.556 120.883 282.221 120.442 280.606C118.118 272.013 123.842 269.332 124.025 274.167C124.165 278.14 125.704 284.3 126.253 286.356C129.395 287.411 131.999 288.133 133.592 288.693C140.21 291.019 144.331 296.037 144.331 296.037C147.333 293.367 149.754 290.126 151.648 286.561C149.647 284.838 146.483 282.275 142.093 279.174C133.861 273.359 136.723 266.015 143.255 270.581C147.968 273.876 151.616 279.981 153.273 283.115C155.544 277.688 156.738 271.733 157.007 265.961C150.54 259.888 134.55 251.424 139.37 251.424C143.707 251.424 153.413 257.788 156.974 260.243C156.877 258.531 156.694 256.862 156.425 255.257C150.335 251.262 130.546 245.049 133.699 243.262C137.164 241.302 150.97 247.698 155.145 249.723C154.231 246.751 152.993 244.167 151.487 242.142C143.072 230.868 127.898 226.984 121.278 229.132C116.594 230.652 117.962 242.546 116.956 242.142C98.1379 234.564 89.5799 239.92 96.4999 263.021ZM142.631 261.719C143.966 260.104 150.142 264.852 148.356 267.448C146.569 270.042 140.909 263.786 142.631 261.719ZM110.36 251.575C111.985 252.609 109.585 258.617 107.078 256.797C104.948 255.247 108.724 250.531 110.36 251.575Z" fill="#FD8A78"/>
<path d="M112.824 253.416C113.674 251.736 114.56 250.064 115.529 248.449C116.451 246.911 117.434 245.274 118.638 243.937C118.369 243.607 118.11 243.27 117.834 242.946C117.721 242.814 117.915 242.627 118.03 242.759C118.346 243.119 118.646 243.488 118.952 243.853C119.012 243.887 119.06 243.938 119.083 244.007C120.246 245.402 121.342 246.838 122.387 248.304C124.236 248.695 126.064 249.289 127.853 249.888C129.699 250.507 131.528 251.149 133.322 251.907C133.51 251.987 133.416 252.295 133.23 252.212C131.453 251.425 129.65 250.663 127.807 250.04C126.065 249.451 124.292 248.998 122.525 248.498C123.1 249.31 123.664 250.128 124.206 250.959C127.521 251.913 130.763 253.427 133.87 254.904C137.135 256.456 140.279 258.261 143.407 260.071C143.584 260.173 143.416 260.448 143.239 260.342C140.176 258.507 136.985 256.942 133.753 255.429C130.726 254.011 127.593 252.847 124.542 251.497C132.226 263.497 136.836 277.346 142.997 290.167C143.087 290.354 142.796 290.507 142.718 290.321C140.837 285.824 138.67 281.443 136.622 277.02C134.783 273.049 132.988 269.057 131.147 265.086C130.608 263.924 130.054 262.764 129.49 261.607C129.827 268.017 129.69 274.538 130.74 280.873C130.777 281.1 130.441 281.14 130.426 280.908C129.982 274.058 128.776 267.316 128.824 260.427C128.825 260.387 128.851 260.37 128.862 260.338C127.558 257.719 126.169 255.135 124.668 252.621C122.121 258.619 119.445 264.709 118.257 271.15C118.221 271.348 117.898 271.26 117.952 271.058C119.683 264.601 121.288 258.136 124.396 252.168C122.753 249.452 120.962 246.835 118.984 244.361C118.131 245.955 117.035 247.463 116.064 248.986C115.115 250.476 114.184 251.973 113.307 253.506C111.433 256.782 109.787 260.123 108.501 263.672C108.43 263.867 108.116 263.766 108.196 263.58C109.659 260.166 111.145 256.733 112.824 253.416Z" fill="#685E68"/>
<path d="M52.247 268.008C57.178 263.059 62.911 256.562 70.532 256.576C77.888 256.589 83.302 262.516 86.411 268.629C89.664 275.023 90.831 282.266 91.751 289.307C92.851 297.736 93.461 306.233 93.701 314.73C93.835 319.45 93.816 324.175 93.7 328.895C93.582 333.657 93.467 338.489 92.62 343.187C92.482 343.949 91.261 343.978 91.215 343.154C90.993 339.18 91.152 335.187 91.174 331.209C91.195 327.292 91.134 323.374 90.99 319.459C90.7 311.539 90.124 303.631 89.194 295.76C88.383 288.885 87.738 281.816 85.682 275.174C83.828 269.185 80.352 262.333 74.283 259.702C66.002 256.112 57.913 262.67 52.493 268.21C52.351 268.356 52.102 268.154 52.247 268.008Z" fill="#685E68"/>
<path d="M27.0868 279.067V279.078C27.1238 280.09 27.1828 281.089 27.2508 282.067C29.5018 280.483 32.3318 279.043 35.3318 278.717C42.3308 277.973 41.8848 283.298 37.2088 283.521C32.7478 283.734 29.7578 284.491 27.6048 285.446C28.7468 294.695 31.2888 302.13 31.6698 302.23C32.0518 302.32 40.6078 301.706 50.1628 299.891C48.4238 296.18 44.4608 291.248 46.4778 290.85C48.5478 290.438 50.7078 294.842 51.8268 299.553C56.4358 298.621 61.1828 297.402 65.2778 295.849C62.1988 293.182 57.4408 289.863 59.2588 288.45C61.0758 287.026 64.8538 291.708 67.1168 295.103C69.3658 294.144 71.3608 293.067 72.9298 291.86C68.7818 285.763 58.6718 284.521 59.9908 280.114C61.3388 275.619 70.7698 281.82 75.0158 289.982C80.0048 284.806 81.4648 277.481 80.9398 271.222C76.5958 270.718 68.2368 271.635 68.8418 268.512C69.4108 265.542 75.4868 265.985 80.4318 267.807C79.8218 264.969 78.7908 262.549 77.5288 260.928C72.9498 255.045 58.9788 262.526 58.9788 262.526C58.9788 262.526 60.4738 248.473 55.1438 246.043C52.0718 244.648 46.6528 244.659 41.2148 247.862C44.2648 248.115 47.9528 249.082 49.4318 251.199C51.3278 253.9 48.3378 255.369 46.4368 254.123C45.1018 253.238 42.5988 250.458 38.0898 250.091C36.3388 251.544 34.6278 253.393 33.0458 255.679C32.5308 256.404 32.0508 257.171 31.5728 258.003C35.9668 256.176 41.7828 255.24 47.9298 258.299C53.9878 261.309 50.6038 267.604 45.3918 265.158C40.2348 262.742 35.2168 260.308 29.6918 261.693C27.6638 266.372 26.9908 271.912 27.0358 277.365C29.1078 275.865 32.1678 274.069 36.0088 273.055C42.0308 271.474 43.8508 275.073 37.2358 275.745C33.0348 276.174 29.4998 277.712 27.0868 279.067ZM34.4138 269.392C33.9978 267.439 38.2688 266.879 38.9808 268.463C39.5728 269.814 34.8198 271.346 34.4138 269.392ZM70.9538 280.205C71.3558 279.14 74.2148 280.351 73.9548 281.679C73.5978 283.453 70.5638 281.27 70.9538 280.205ZM50.7808 287.055C52.8628 286.222 56.1158 291.403 53.8458 292.59C51.5748 293.777 49.0788 287.74 50.7808 287.055Z" fill="#FD8A78"/>
<path d="M32.4879 301.163C35.6269 295.912 38.7289 290.633 42.0239 285.478C43.5589 283.076 45.1669 280.724 46.8359 278.415C46.5839 278.364 46.3329 278.29 46.0879 278.239C45.6729 278.151 45.2569 278.071 44.8379 277.998C43.8739 277.83 42.9019 277.691 41.9289 277.592C41.0129 277.499 40.0939 277.449 39.1719 277.438C38.2139 277.426 37.1689 277.394 36.2279 277.593C36.1099 277.618 36.0919 277.432 36.2029 277.437C37.1829 277.476 38.1869 277.347 39.1699 277.333C40.1229 277.32 41.0779 277.344 42.0299 277.401C42.9249 277.454 43.8139 277.543 44.6999 277.679C45.1889 277.754 45.6779 277.84 46.1629 277.936C46.4519 277.993 46.7589 278.035 47.0439 278.122C48.7439 275.782 50.5079 273.489 52.3319 271.244C46.8289 268.714 41.1679 266.63 35.1509 265.757C35.0499 265.742 35.0879 265.586 35.1899 265.602C41.1839 266.561 47.1959 268.11 52.6199 270.892C53.6229 269.66 54.6319 268.433 55.6479 267.212C56.7839 265.846 57.9979 264.511 59.0249 263.06C59.0919 262.965 59.2309 263.07 59.1519 263.154C57.7269 264.676 56.4379 266.355 55.1689 268.034C55.1789 268.038 55.1889 268.032 55.1979 268.039C57.4649 269.556 59.5479 271.366 61.5859 273.173C63.6729 275.025 65.7129 276.94 67.6909 278.907C67.7639 278.979 67.6539 279.095 67.5809 279.022C65.6239 277.076 63.5949 275.218 61.4729 273.453C59.3529 271.69 57.1209 270.071 54.9879 268.325C54.9769 268.316 54.9799 268.303 54.9719 268.293C54.4849 268.938 53.9989 269.583 53.5099 270.217C53.2629 270.538 53.0189 270.861 52.7719 271.182C52.7599 271.21 52.7409 271.229 52.7189 271.251C51.9019 272.314 51.0879 273.38 50.2819 274.451C51.2699 275.776 52.0009 277.34 52.7069 278.83C53.4099 280.312 54.0219 281.843 54.5859 283.383C55.7529 286.572 56.5369 289.897 57.2039 293.222C57.2239 293.322 57.0709 293.368 57.0519 293.268C56.4219 289.959 55.3859 286.767 54.1939 283.622C53.5849 282.016 52.8899 280.45 52.1739 278.889C51.5219 277.468 50.7319 276.104 50.1219 274.667C49.4179 275.604 48.7169 276.543 48.0279 277.491C47.8279 277.766 47.6369 278.048 47.4389 278.325C47.4689 278.386 47.4499 278.466 47.3699 278.469C47.3589 278.47 47.3479 278.467 47.3379 278.468C45.1809 281.481 43.1289 284.564 41.1329 287.684C41.2689 287.885 41.3269 288.132 41.4059 288.367C41.5349 288.746 41.6539 289.127 41.7659 289.511C41.9899 290.281 42.1709 291.06 42.3129 291.849C42.4469 292.59 42.5519 293.336 42.6259 294.085C42.7069 294.91 42.6289 295.823 42.8139 296.627C42.8429 296.754 42.6389 296.762 42.6609 296.631C42.7839 295.881 42.5909 295.007 42.4869 294.259C42.3729 293.448 42.2219 292.642 42.0349 291.845C41.8659 291.123 41.6719 290.405 41.4569 289.695C41.3499 289.339 41.2349 288.986 41.1139 288.635C41.0499 288.45 40.9579 288.253 40.8959 288.055C39.9619 289.521 39.0359 290.992 38.1249 292.474C36.3189 295.41 34.5279 298.357 32.7249 301.295C32.6339 301.442 32.3979 301.314 32.4879 301.163Z" fill="#685E68"/>
<path d="M80.8928 341.49C80.9738 338.514 81.4448 335.517 81.7658 332.558C82.0878 329.584 82.4248 326.613 82.7428 323.64C83.3538 317.909 83.6948 312.05 85.0428 306.431C86.2018 301.598 88.3288 296.968 92.0388 293.561C93.9158 291.838 96.3018 290.425 98.8998 290.284C101.557 290.14 104.007 291.061 106.185 292.532C108.666 294.207 110.579 296.583 112.311 298.992C114.097 301.475 115.677 304.042 117.088 306.755C117.141 306.858 116.981 306.921 116.925 306.825C114.318 302.303 110.725 298.402 106.59 295.237C104.686 293.78 102.501 292.686 100.075 292.52C97.6698 292.355 95.5258 293.505 93.7588 295.041C90.2908 298.057 88.2838 302.495 87.0878 306.853C85.6708 312.019 85.2118 317.454 84.5048 322.75C84.0838 325.898 83.6828 329.049 83.2678 332.198C82.8548 335.331 82.5938 338.543 81.9288 341.632C81.7838 342.296 80.8748 342.158 80.8928 341.49Z" fill="#685E68"/>
<path d="M95.522 318.378C96.379 319.577 97.475 320.666 98.757 321.684C98.268 318.779 97.676 313.619 99.141 310.873C101.415 306.606 104.109 308.734 102.753 312.443C100.798 317.738 100.542 321.315 100.562 322.959C103.446 324.858 106.925 326.392 110.441 327.623C110.13 326.195 109.933 324.423 110.116 322.534C110.57 317.974 114.06 318.058 113.153 322.804C112.755 324.856 112.67 326.829 112.675 328.376C120.636 330.874 128.071 331.85 128.071 331.85C131.034 327.9 133.114 324.104 134.443 320.499C130.733 319.569 123.221 319.357 123.382 316.705C123.596 313.135 130.872 315.884 135.129 318.473C136.176 315.054 136.544 311.829 136.414 308.867C134.752 308.322 131.679 307.646 126.182 307.171C118.542 306.511 118.918 302.176 124.454 302.276C128.539 302.351 133.704 304.853 136.153 306.154C134.559 295.757 126.633 289.092 120.277 288.839C109.594 288.407 113.437 301.713 113.437 301.713C113.437 301.713 106.199 296.615 99.366 296.75C92.551 296.895 88.216 308.207 95.522 318.378ZM124.058 299.144C123.82 297.648 128.588 297.288 128.836 299.208C129.122 301.364 124.3 300.668 124.058 299.144ZM131.73 314.753C131.632 313.775 133.69 313.603 134.156 314.836C134.467 315.638 131.812 315.72 131.73 314.753ZM106.075 315.664C107.686 315.891 108.6 321.653 105.83 321.539C103.715 321.45 104.71 315.469 106.075 315.664Z" fill="#FD8A78"/>
<path d="M108.303 322.062C108.569 321.345 108.806 320.616 109.032 319.884C108.824 320.625 108.639 321.369 108.501 322.116C108.474 322.264 108.25 322.205 108.303 322.062Z" fill="#685E68"/>
<path d="M111.124 312.801C111.625 311.324 112.187 309.865 112.76 308.415C113.066 307.641 113.384 306.872 113.723 306.112C114.008 305.471 114.246 304.743 114.675 304.183C114.348 303.571 114.041 302.949 113.81 302.317C113.788 302.256 113.865 302.21 113.908 302.26C114.723 303.212 115.354 304.41 115.99 305.49C116.287 305.994 116.569 306.507 116.86 307.015C117.459 307.051 118.07 307.187 118.657 307.295C119.298 307.412 119.936 307.542 120.572 307.686C121.207 307.829 121.842 307.976 122.476 308.129C123.105 308.28 123.732 308.489 124.37 308.586C124.518 308.608 124.457 308.842 124.316 308.785C123.684 308.53 122.983 308.409 122.317 308.265C121.703 308.132 121.089 308.024 120.468 307.935C119.847 307.846 119.225 307.769 118.601 307.707C118.135 307.66 117.659 307.636 117.188 307.592C117.443 308.041 117.707 308.484 117.955 308.937C117.994 309.008 118.029 309.081 118.068 309.153C118.582 309.11 119.097 309.243 119.603 309.334C120.155 309.433 120.706 309.538 121.253 309.659C122.367 309.906 123.477 310.169 124.578 310.476C126.89 311.122 129.173 311.86 131.454 312.606C131.581 312.648 131.5 312.841 131.374 312.797C129.111 312.023 126.799 311.405 124.467 310.88C123.374 310.633 122.281 310.382 121.184 310.154C120.634 310.04 120.086 309.919 119.537 309.803C119.114 309.714 118.67 309.663 118.261 309.521C119.437 311.694 120.544 313.903 121.561 316.156C123.776 321.062 125.642 326.116 127.542 331.15C127.589 331.275 127.395 331.357 127.351 331.231C125.575 326.2 123.332 321.358 120.986 316.572C120.559 315.701 120.119 314.838 119.688 313.97C119.653 314.146 119.609 314.323 119.576 314.501C119.466 315.096 119.36 315.691 119.261 316.287C119.061 317.48 118.858 318.672 118.679 319.868C118.319 322.288 117.735 324.844 117.818 327.298C117.823 327.452 117.589 327.444 117.612 327.298C117.804 326.114 117.803 324.877 117.878 323.68C117.956 322.429 118.048 321.178 118.193 319.933C118.333 318.732 118.486 317.532 118.684 316.34C118.783 315.744 118.888 315.148 118.997 314.553C119.077 314.12 119.095 313.631 119.333 313.259C118.707 312.003 118.087 310.744 117.454 309.491C116.86 308.316 116.26 307.144 115.649 305.977C115.391 305.485 115.111 304.986 114.836 304.483C114.68 305.101 114.365 305.697 114.128 306.283C113.855 306.958 113.579 307.632 113.302 308.305C112.69 309.797 112.12 311.304 111.55 312.812C110.743 314.95 109.85 317.141 109.185 319.367C109.839 317.182 110.392 314.958 111.124 312.801Z" fill="#685E68"/>
<path d="M109.032 319.884C109.08 319.711 109.136 319.539 109.187 319.367C109.136 319.539 109.085 319.712 109.032 319.884Z" fill="#685E68"/>
<path d="M63.0278 335.702L63.7798 351.617L65.7138 445.203H108.006L109.939 351.617L110.691 335.702H63.0278Z" fill="#685E68"/>
<path d="M63.0278 335.702L63.7798 351.617H109.939L110.691 335.702H63.0278Z" fill="#685E68"/>
<path d="M60.0208 342.136H113.698V329.268H60.0208V342.136Z" fill="#685E68"/>
<path d="M104.583 445.204H97.1577V451.941H104.583V445.204Z" fill="#685E68"/>
<path d="M104.583 445.204H97.1577V448.572H104.583V445.204Z" fill="#685E68"/>
<path d="M76.5547 445.204H69.1367V451.941H76.5547V445.204Z" fill="#685E68"/>
<path d="M76.5547 445.204H69.1367V448.572H76.5547V445.204Z" fill="#685E68"/>
<path d="M226.331 188.258C224.566 188.463 216.899 187.492 211.703 194.417C206.788 200.969 204.873 221.039 203.791 225.403C202.709 229.767 196.961 230.366 195.554 235.434C194.345 239.792 197.51 241.432 197.803 244.642C198.03 247.131 195.487 250.836 197.716 254.539C199.743 257.907 203.382 257.238 205.563 258.309C207.743 259.38 209.056 264.469 213.098 265.881C217.14 267.293 220.769 263.63 222.919 263.676C225.069 263.721 227.554 270.353 234.586 269.849C241.617 269.345 243.71 263.422 246.623 262.281C249.536 261.14 256.796 263.238 260.159 259.651C263.522 256.064 264.145 251.228 265.661 249.463C267.177 247.697 270.303 248.015 272.21 243.913C274.117 239.81 270.31 237.153 269.808 233.57C269.458 231.075 271.696 228.81 270.18 224.988C268.096 219.732 261.681 220.784 259.297 215.386C257.427 211.152 253.661 192.788 242.637 188.16C235.024 184.963 226.331 188.258 226.331 188.258Z" fill="#685E68"/>
<path d="M204.015 224.354C203.669 225.32 202.849 226.018 202.113 226.689L199.805 228.641C198.278 229.919 196.733 231.238 195.715 232.873C194.671 234.455 194.354 236.468 194.981 238.2C195.287 239.072 195.826 239.865 196.425 240.652C197.009 241.447 197.717 242.223 198.132 243.337C198.523 244.546 198.123 245.702 197.812 246.637C197.476 247.609 197.103 248.531 196.82 249.467C196.23 251.316 196.069 253.292 196.943 254.974C197.356 255.8 198 256.482 198.845 256.884C199.685 257.295 200.661 257.453 201.642 257.52C202.627 257.601 203.634 257.58 204.645 257.606C205.636 257.642 206.738 257.685 207.565 258.303C206.675 257.799 205.635 257.875 204.649 257.911C203.651 257.971 202.646 258.08 201.621 258.084C200.601 258.075 199.542 257.966 198.544 257.546C197.541 257.138 196.69 256.337 196.16 255.39C194.999 253.492 195.236 251.108 195.814 249.172C196.097 248.177 196.463 247.225 196.767 246.291C197.072 245.351 197.31 244.443 197.041 243.702C196.455 242.093 194.66 240.64 193.995 238.548C193.287 236.479 193.692 234.074 194.982 232.386C196.201 230.655 197.849 229.403 199.461 228.199L201.922 226.455C202.701 225.842 203.557 225.261 204.015 224.354Z" fill="#685E68"/>
<path d="M252.768 198.602C254.65 201.704 255.804 205.157 257.277 208.425C258.015 210.059 258.697 211.719 259.544 213.269C259.976 214.026 260.414 214.813 260.962 215.41C261.091 215.579 261.229 215.717 261.374 215.81C261.51 215.921 261.642 216.039 261.853 216.133C262.229 216.337 262.628 216.519 263.032 216.698C264.639 217.437 266.351 218.1 267.951 219.047C269.537 219.975 271.077 221.277 271.865 223.051C272.253 223.921 272.486 224.903 272.397 225.875C272.319 226.849 271.948 227.736 271.547 228.547C270.689 230.139 269.881 231.737 269.809 233.57C269.607 231.744 270.357 229.951 271.032 228.317C271.372 227.495 271.658 226.665 271.671 225.831C271.697 224.999 271.454 224.188 271.068 223.438C270.262 221.952 268.953 220.792 267.425 219.954C265.905 219.091 264.232 218.481 262.556 217.746C262.141 217.552 261.723 217.353 261.312 217.119C260.93 216.911 260.395 216.503 260.137 216.137C259.484 215.386 259.064 214.57 258.619 213.76C257.785 212.124 257.075 210.456 256.458 208.755L254.65 203.655C254.077 201.947 253.533 200.234 252.768 198.602Z" fill="#685E68"/>
<path d="M267.393 248.258C266.613 249.284 266.499 250.629 266.194 251.865C265.91 253.12 265.626 254.385 265.276 255.643C264.938 256.904 264.494 258.148 263.885 259.344C263.267 260.524 262.464 261.688 261.278 262.507C258.804 264.053 255.894 263.836 253.379 263.348C252.097 263.099 250.848 262.782 249.593 262.562C248.346 262.316 247.066 262.181 245.813 262.537C246.981 261.927 248.375 261.936 249.665 262.002C250.969 262.113 252.245 262.334 253.514 262.472C256.001 262.765 258.663 262.833 260.64 261.549C261.599 260.914 262.327 259.905 262.927 258.831C263.548 257.757 263.988 256.564 264.438 255.372C264.881 254.175 265.257 252.945 265.655 251.714C265.869 251.103 266.089 250.49 266.337 249.887C266.608 249.308 266.84 248.643 267.393 248.258Z" fill="#685E68"/>
<path d="M213.229 261.118C222.228 281.695 234.872 309.926 241.704 312.988C259.448 320.941 295.496 327.777 308.31 325.058C313.131 324.035 314.104 285.522 308.914 286.435C299.326 288.122 260.658 285.253 257.789 283.777C255.795 282.75 239.444 263.925 226.465 252.343C208.051 235.914 210.002 253.74 213.229 261.118Z" fill="#DF9990"/>
<path d="M361.597 299.096C361.325 299.864 360.86 300.296 360.254 300.497C362.776 302.81 364.235 305.287 362.916 307.5C362.151 308.798 360.716 309.241 358.95 309.078C360.01 310.434 360.251 311.783 359.209 313.038C357.381 315.239 351.07 313.799 344.974 311.676C348.921 313.795 351.825 316.209 350.27 318.252C346.123 323.664 332.97 317.462 323.472 314.514C320.654 313.636 317.063 312.806 314.389 312.859C313.898 312.869 313.435 312.912 313.008 312.997C311.76 313.226 310.876 313.774 310.664 314.787C310.297 316.597 314.057 318.561 316.857 319.047C322.173 319.947 328.089 325.774 327.559 329.11C326.794 333.996 314.876 330.313 310.408 330.061C304.427 329.727 294.977 325.813 294.252 325.635C294.252 325.635 293.752 321.936 293.35 316.765C292.568 306.905 292.138 291.715 296.067 286.765C296.067 286.765 315.57 280.596 335.26 280.76C341.953 280.822 363.986 292.681 361.597 299.096Z" fill="#DF9990"/>
<path d="M323.061 303.78C327.15 303.504 330.366 303.999 334.223 305.465C339.12 307.326 341.336 309.317 345.666 311.84C345.78 311.906 345.682 312.086 345.568 312.02C343.506 310.822 336.463 307.144 334.334 306.204C330.432 304.481 327.321 303.696 323.062 303.853C323.016 303.854 323.015 303.783 323.061 303.78Z" fill="#685E68"/>
<path d="M325.262 295.167C329.944 295.378 333.135 295.662 337.704 296.832C342.705 298.113 347.066 301.065 351.336 303.889C353.9 305.585 356.43 307.335 358.915 309.147C359.019 309.223 358.928 309.402 358.817 309.327C354.469 306.395 350.035 303.59 345.518 300.929C341.269 298.427 336.796 296.79 331.928 296.09C329.186 295.695 328.023 295.43 325.262 295.249C325.211 295.245 325.209 295.164 325.262 295.167Z" fill="#685E68"/>
<path d="M327.457 287.251C331.939 287.162 335.918 286.984 340.237 288.435C345.956 290.355 351.097 294.029 353.216 295.471C355.557 297.065 357.842 298.734 360.103 300.44C360.195 300.509 360.078 300.672 359.984 300.604C354.864 296.915 349.484 293.529 343.938 290.535C341.288 289.104 339.315 288.435 336.353 287.879C333.425 287.328 330.422 287.323 327.457 287.283C327.438 287.282 327.437 287.252 327.457 287.251Z" fill="#685E68"/>
<path d="M250.238 272.026L229.134 300.111C229.134 300.111 212.544 265.22 210.561 253.582C208.329 240.484 215.515 242.207 225.88 249.423C236.245 256.638 250.238 272.026 250.238 272.026Z" fill="#FD8A78"/>
<path d="M221.26 256.07C220.67 259.54 219.01 262.47 216.41 264.81C215.8 265.36 215.17 265.87 214.52 266.36C214.48 266.25 214.44 266.14 214.4 266.04C216.45 264.48 218.34 262.71 219.53 260.38C221.4 256.72 221.51 252.35 220.91 248.36C220.79 247.58 220.64 246.8 220.44 246.02C220.57 246.08 220.7 246.15 220.83 246.23C221.63 249.43 221.8 252.87 221.26 256.07ZM234.9 268.43C234.71 265.75 233.6 262.38 230.84 261.34C227.49 260.09 224.6 263.15 222.98 265.7C221.1 268.64 219.66 271.83 217.89 274.84C217.94 274.95 217.98 275.06 218.04 275.18C219.95 271.96 221.44 268.47 223.52 265.35C224.59 263.74 226.03 262.07 227.94 261.49C229.68 260.95 231.45 261.55 232.63 262.91C234.99 265.64 234.93 269.83 234.28 273.16C233.52 277.07 231.74 280.75 229.08 283.72C227.51 285.47 225.65 286.93 223.6 288.05C223.63 288.14 223.67 288.22 223.71 288.31C227.45 286.24 230.57 283.08 232.55 279.16C234.2 275.91 235.16 272.1 234.9 268.43ZM232.67 287.23C231.68 288.31 230.97 289.77 231.08 291.27C231.19 292.64 231.98 293.83 233.09 294.61C233.13 294.64 233.17 294.66 233.21 294.69L233.4 294.43C233.34 294.4 233.29 294.37 233.24 294.33C231.79 293.32 231.07 291.59 231.53 289.86C232 288.08 233.44 286.59 235.09 285.84C236.78 285.07 238.58 284.96 240.41 285.11L240.57 284.9C237.68 284.64 234.73 284.96 232.67 287.23ZM229.32 254.1C229.18 254.97 229.04 256.02 228.37 256.65C226.63 258.31 224.91 254.12 224.63 252.92C224.3 251.48 224.32 249.97 224.54 248.51C224.44 248.44 224.34 248.37 224.24 248.31C224.15 248.83 224.1 249.36 224.07 249.9C223.99 251.54 224.2 253.23 224.92 254.73C225.42 255.8 226.65 257.86 228.12 257.21C229.55 256.57 229.62 254.32 229.8 253.05C229.83 252.85 229.86 252.65 229.89 252.45C229.8 252.38 229.7 252.3 229.61 252.23C229.51 252.85 229.42 253.48 229.32 254.1ZM247.46 269.05C245.81 269.32 244.1 269.47 242.48 268.97C240.51 268.36 239.31 266.65 239.41 264.59C239.46 263.57 239.73 262.58 240.1 261.62C240.01 261.54 239.93 261.46 239.84 261.37C239.23 262.95 238.74 264.77 239.31 266.43C240.43 269.74 244.39 269.87 247.28 269.42C247.43 269.4 247.58 269.37 247.73 269.34C247.64 269.25 247.55 269.15 247.46 269.05Z" fill="white"/>
<path d="M244.416 269.198C241.244 272.41 233.091 283.385 231.724 285.185C231.004 286.135 228.297 290.048 227.572 290.989C227.479 291.11 227.683 291.231 227.775 291.111C229.16 289.315 230.735 287.659 232.137 285.87C233.572 284.04 242.237 273.218 244.554 269.308C244.604 269.222 244.488 269.125 244.416 269.198Z" fill="#685E68"/>
<path opacity="0.1" d="M242.706 282.051L229.134 300.116C229.134 300.116 212.543 265.22 210.557 253.58C209.491 247.301 210.588 244.428 213.159 243.926H213.169L242.706 282.051Z" fill="black"/>
<path d="M335.555 452.163C338.594 451.148 335.896 442.377 332.514 439.667C331.439 438.809 327.451 436.777 322.451 434.366C311.442 429.072 295.616 421.998 295.616 421.998L309.106 364.873L254.153 365.171C254.153 365.171 239.147 418.824 239.238 422.16C239.242 422.366 239.247 422.572 239.251 422.778C239.721 437.92 240.471 450.315 241.717 451.093C245.047 453.203 332.497 453.187 335.555 452.163Z" fill="#DF9990"/>
<path d="M335.557 452.159C332.497 453.188 245.044 453.207 241.714 451.092C240.471 450.313 239.72 437.923 239.247 422.779C239.247 422.575 239.238 422.362 239.238 422.158C239.219 421.444 239.887 418.43 240.954 414.136H297.469L295.614 422C295.614 422 311.445 429.076 322.453 434.362C327.452 436.773 331.439 438.804 332.515 439.667C335.9 442.375 338.59 451.148 335.557 452.159Z" fill="#EBEBEB"/>
<path d="M336.54 452.652C333.428 453.697 244.382 453.595 240.998 451.435C239.697 450.637 238.955 437.661 238.51 421.957C238.507 421.793 238.504 421.629 238.501 421.465L295.95 420.889L295.927 421.864C295.927 421.864 329.994 437.148 333.468 439.915C336.914 442.67 339.653 451.621 336.54 452.652Z" fill="#FD8A78"/>
<path d="M335.536 449.198C320.526 448.812 259.949 448.673 245.082 449.432C244.961 449.438 244.961 449.521 245.082 449.527C259.951 450.234 320.527 449.883 335.536 449.445C335.853 449.435 335.853 449.206 335.536 449.198Z" fill="#685E68"/>
<path d="M302.344 421.06C296.439 419.951 289.213 420.849 284.695 425.053C284.52 425.216 284.754 425.462 284.946 425.402C290.775 423.572 296.219 422.399 302.32 421.806C302.75 421.765 302.767 421.14 302.344 421.06Z" fill="#685E68"/>
<path d="M306.605 423.635C300.699 422.526 293.474 423.424 288.956 427.627C288.781 427.79 289.015 428.036 289.206 427.976C295.036 426.146 300.479 424.973 306.58 424.381C307.01 424.339 307.028 423.714 306.605 423.635Z" fill="#685E68"/>
<path d="M310.865 426.209C304.959 425.1 297.734 425.998 293.216 430.202C293.041 430.365 293.275 430.611 293.466 430.551C299.296 428.721 304.739 427.548 310.84 426.956C311.271 426.914 311.288 426.289 310.865 426.209Z" fill="#685E68"/>
<path d="M310.04 408.186C307.723 404.986 303.399 406.419 300.931 408.489C296.934 411.84 293.433 417.077 291.819 422.009C291.78 422.13 291.861 422.204 291.958 422.222C291.975 422.671 292.377 423.147 292.884 422.961C297.763 421.16 303.203 419.84 307.385 416.596C309.824 414.701 312.232 411.212 310.04 408.186ZM299.722 418.718C297.344 419.662 294.934 420.483 292.591 421.515C294.376 418.882 296.038 416.187 298.087 413.736C299.065 412.567 300.091 411.384 301.221 410.358C302.98 408.761 309.941 405.366 308.893 411.845C308.314 415.417 302.556 417.592 299.722 418.718Z" fill="#685E68"/>
<path d="M276.807 420.449C281.673 422.53 287.27 422.431 292.446 422.939C292.983 422.992 293.252 422.429 293.154 421.99C293.244 421.948 293.304 421.856 293.235 421.748C290.425 417.385 285.713 413.204 280.998 410.973C278.087 409.595 273.541 409.303 272.109 412.985C270.754 416.468 273.966 419.234 276.807 420.449ZM274.145 416.234C271.491 410.23 279.085 411.754 281.191 412.854C282.543 413.561 283.836 414.446 285.078 415.33C287.68 417.183 289.97 419.37 292.363 421.466C289.835 421.061 287.296 420.876 284.756 420.564C281.729 420.193 275.608 419.544 274.145 416.234Z" fill="#685E68"/>
<path d="M177.575 326.796C177.575 326.796 167.723 362.455 184.92 373.009C196.401 380.055 247.137 370.31 249.296 364.039C253.374 352.192 253.382 347.85 253.382 347.85L240.354 410.663L304.27 411.412C304.27 411.412 316.265 359.447 313.183 304.294C312.044 283.901 284.632 277.732 265.564 287.875C247.075 297.71 213.966 325.011 213.966 325.011L177.575 326.796Z" fill="#685E68"/>
<path d="M245.747 373.854C249.19 365.424 248.922 362.115 257.524 335.951C258.674 332.454 259.636 328.898 260.663 325.363C261.729 321.698 262.99 318.047 263.797 314.314C263.836 314.132 264.132 314.208 264.077 314.386C263.084 317.62 262.44 320.96 261.585 324.232C260.748 327.436 259.897 330.636 259.002 333.824C258.615 335.201 258.211 336.573 257.817 337.948C257.99 337.662 258.164 337.379 258.326 337.1C259.077 335.809 259.831 334.524 260.614 333.253C262.225 330.634 264.178 328.17 265.59 325.437C265.676 325.271 265.94 325.42 265.842 325.578C264.218 328.192 263.062 331.094 261.541 333.772C260.803 335.071 260.029 336.343 259.237 337.61C258.538 338.728 257.835 339.999 256.941 341.002C255.767 345.041 253.247 354.771 251.991 358.785C248.037 371.435 249.333 367.318 246.385 374.109C246.231 374.465 245.598 374.218 245.747 373.854Z" fill="#685E68"/>
<path d="M274.86 400.283C265.238 400.182 255.632 399.637 246.014 399.453C245.831 399.45 245.804 399.166 245.991 399.165C255.579 399.109 265.157 398.735 274.748 398.85C284.373 398.964 293.971 399.439 303.589 399.761C303.834 399.769 303.874 400.149 303.619 400.149C294.031 400.17 284.451 400.384 274.86 400.283Z" fill="#685E68"/>
<path d="M251.278 397.069C252.157 392.822 253.387 388.644 254.509 384.456C255.632 380.263 256.758 376.071 257.916 371.887C260.233 363.516 262.648 355.173 265.057 346.829C266.425 342.092 267.902 337.379 269.353 332.667C269.394 332.533 269.603 332.581 269.567 332.72C265.281 349.549 260.653 366.292 255.747 382.95C254.355 387.676 253.089 392.466 251.428 397.106C251.395 397.198 251.257 397.168 251.278 397.069Z" fill="#685E68"/>
<path d="M184.917 373.004C167.723 362.452 177.572 326.794 177.572 326.794L208.241 325.296L249.992 361.986C249.773 362.644 249.544 363.329 249.298 364.042C247.142 370.309 196.4 380.057 184.917 373.004Z" fill="#685E68"/>
<path d="M304.589 409.968C304.388 410.918 304.269 411.411 304.269 411.411L240.354 410.662L250.376 362.324L304.589 409.968Z" fill="#685E68"/>
<path d="M46.6688 458.751C46.0948 461.903 55.0808 463.763 59.0848 462.104C60.3548 461.575 64.0558 459.058 68.5768 455.838C78.5188 448.74 92.3408 438.277 92.3408 438.277L139.307 441.117L165.513 392.814C165.513 392.814 122.32 390.318 119.353 388.791C119.17 388.696 118.987 388.601 118.805 388.505C105.309 381.624 94.0848 376.311 92.8028 377.028C89.3488 378.931 47.2438 455.578 46.6688 458.751Z" fill="#DF9990"/>
<path d="M127.596 390.033L102.886 438.918L92.3368 438.277C92.3368 438.277 78.5128 448.734 68.5698 455.837C64.0498 459.052 60.3598 461.57 59.0838 462.104C55.0808 463.769 46.0938 461.899 46.6668 458.749C47.2428 455.574 89.3478 378.932 92.8008 377.027C94.0758 376.316 105.313 381.623 118.801 388.507C118.991 388.597 119.168 388.697 119.345 388.785C120.08 389.163 123.237 389.598 127.596 390.033Z" fill="#EBEBEB"/>
<path d="M45.766 459.378C46.349 456.148 89.326 378.16 92.849 376.234C94.175 375.478 105.904 381.078 119.881 388.252C120.026 388.328 120.171 388.405 120.317 388.481L93.152 439.105L92.309 438.615C92.309 438.615 62.507 461.109 58.408 462.821C54.333 464.513 45.17 462.603 45.766 459.378Z" fill="#FD8A78"/>
<path d="M49.2758 460.162C56.8428 447.193 86.1418 394.173 92.6368 380.779C92.6898 380.67 92.6178 380.63 92.5538 380.733C84.7728 393.423 55.9048 446.68 49.0598 460.044C48.9158 460.326 49.1158 460.436 49.2758 460.162Z" fill="#685E68"/>
<path d="M89.9216 444.625C93.7376 439.984 96.4306 433.219 94.9226 427.235C94.8646 427.003 94.5366 427.09 94.4956 427.286C93.2926 433.276 91.6976 438.612 89.2786 444.244C89.1086 444.641 89.6476 444.958 89.9216 444.625Z" fill="#685E68"/>
<path d="M85.6136 447.119C89.4306 442.478 92.1226 435.713 90.6156 429.729C90.5576 429.497 90.2286 429.584 90.1896 429.78C88.9856 435.771 87.3916 441.106 84.9726 446.738C84.8006 447.135 85.3396 447.452 85.6136 447.119Z" fill="#685E68"/>
<path d="M81.305 449.613C85.122 444.971 87.814 438.207 86.307 432.223C86.249 431.991 85.92 432.078 85.881 432.274C84.677 438.265 83.083 443.6 80.664 449.232C80.492 449.629 81.032 449.945 81.305 449.613Z" fill="#685E68"/>
<path d="M97.4978 457.57C101.418 457.08 102.245 452.601 101.62 449.441C100.609 444.324 97.7048 438.734 94.1598 434.943C94.0728 434.85 93.9688 434.886 93.9058 434.962C93.5038 434.76 92.8928 434.884 92.8128 435.417C92.0408 440.56 90.5778 445.964 91.4068 451.191C91.8918 454.244 93.7898 458.034 97.4978 457.57ZM93.2368 443.456C93.5558 440.917 93.9968 438.409 94.2208 435.859C95.6688 438.691 97.2298 441.446 98.3918 444.422C98.9458 445.842 99.4878 447.311 99.8428 448.796C100.396 451.106 100.018 458.843 94.8448 454.803C91.9918 452.576 92.8588 446.482 93.2368 443.456Z" fill="#685E68"/>
<path d="M102.757 422.539C98.59 425.801 95.981 430.754 93.043 435.046C92.738 435.491 93.102 435.998 93.533 436.124C93.527 436.223 93.578 436.32 93.706 436.311C98.883 435.95 104.817 433.834 109.042 430.776C111.652 428.888 114.097 425.045 111.561 422.017C109.162 419.152 105.19 420.635 102.757 422.539ZM107.733 422.237C114.272 422.803 109.28 428.724 107.302 430.04C106.031 430.885 104.633 431.591 103.26 432.254C100.383 433.642 97.363 434.595 94.374 435.683C95.947 433.663 97.332 431.527 98.828 429.451C100.611 426.977 104.128 421.925 107.733 422.237Z" fill="#685E68"/>
<path d="M218.011 318.069C218.011 318.069 219.638 332.898 219.49 344.246C219.49 344.246 280.204 376.065 282.975 406.31C283.957 417.024 282.526 437.093 261.522 446.24C238.051 456.461 108.342 449.424 108.342 449.424L124.546 389.705L181.755 389.729C181.755 389.729 141.387 396.15 137.001 369.249C132.925 344.246 148.282 318.069 148.282 318.069H218.011Z" fill="#685E68"/>
<path d="M121.739 446.5C123.169 439.621 124.552 432.706 126.148 425.863C127.748 419.002 129.449 412.17 131.255 405.367C131.765 403.446 132.291 401.531 132.81 399.613C133.058 398.698 133.306 397.786 133.573 396.877C133.842 395.961 134.051 395.01 134.409 394.132C134.449 394.033 134.558 394.09 134.549 394.184C134.385 395.934 133.894 397.745 133.52 399.464C133.159 401.124 132.814 402.788 132.45 404.448C131.701 407.861 130.94 411.27 130.158 414.675C128.589 421.501 126.851 428.266 125.077 435.033C124.069 438.877 123.057 442.721 122.034 446.558C121.975 446.776 121.691 446.729 121.739 446.5Z" fill="#685E68"/>
<path d="M162.004 389.72C166.639 389.388 171.283 389.238 175.928 389.145C180.573 389.05 185.22 389.1 189.867 389.181C194.512 389.332 199.159 389.515 203.792 389.931C208.42 390.353 213.058 390.867 217.59 391.922L214.137 391.475L210.675 391.145C208.366 390.948 206.057 390.757 203.74 390.654C199.113 390.389 194.48 390.199 189.843 390.122C185.208 389.962 180.57 389.927 175.93 389.866L162.004 389.72Z" fill="#685E68"/>
<path d="M160.991 322.967C158.913 328.288 157.118 333.716 155.596 339.213C154.09 344.712 152.886 350.303 152.29 355.953C152.006 358.776 151.891 361.62 152.112 364.432C152.339 367.231 152.895 370.04 154.173 372.49C154.798 373.718 155.647 374.812 156.648 375.724C157.684 376.638 158.84 377.425 160.052 378.115C162.494 379.473 165.148 380.461 167.856 381.253C173.293 382.813 178.946 383.621 184.597 384.292C190.257 384.948 195.948 385.409 201.641 385.99C207.331 386.572 213.041 387.255 218.655 388.635C221.442 389.331 224.263 390.225 226.83 391.649C229.394 393.057 231.748 394.735 233.941 396.688L235.226 397.832L233.491 397.809L187.233 397.185L164.102 396.999C156.392 396.969 148.681 396.955 140.972 397.162C148.672 396.713 156.388 396.594 164.099 396.456C171.811 396.327 179.524 396.303 187.236 396.281L210.373 396.298L233.509 396.515L233.06 397.636C230.981 395.799 228.649 394.145 226.199 392.817C223.755 391.471 221.076 390.634 218.328 389.96C212.831 388.641 207.16 387.992 201.498 387.364C195.827 386.758 190.131 386.269 184.445 385.582C178.765 384.88 173.065 384.041 167.516 382.421C164.749 381.603 162.018 380.569 159.488 379.102C158.229 378.361 157.023 377.516 155.931 376.523C154.835 375.5 153.926 374.283 153.272 372.957C151.937 370.302 151.414 367.376 151.218 364.499C151.031 361.61 151.189 358.724 151.516 355.871C152.175 350.159 153.548 344.575 155.173 339.093C156.816 333.612 158.738 328.218 160.991 322.967Z" fill="#685E68"/>
<path d="M211.398 317.442C211.399 317.314 211.61 317.301 211.625 317.43C211.863 319.499 212.587 331.312 212.946 335.763C213.074 337.35 212.987 340.176 215.299 340.174C217.129 340.172 218.04 338.177 218.243 336.626C218.49 334.736 217.477 321.023 217.243 316.458C217.236 316.328 217.447 316.322 217.47 316.446C218.311 321.019 219.941 335.564 219.457 337.603C219.077 339.202 218.255 340.72 216.628 341.258C216.595 341.269 216.891 343.395 216.551 346.648C216.535 346.797 216.072 346.837 216.037 346.717L216.026 346.721C216.106 345.653 215.539 341.509 215.554 341.486C214.355 341.483 213.415 341.215 212.611 340.144C211.004 338.003 211.356 322.704 211.398 317.442Z" fill="#685E68"/>
<path d="M204.838 352.477C206.492 351.336 208.205 350.297 209.928 349.278C211.647 348.25 213.405 347.292 215.169 346.348C216.945 345.424 218.725 344.507 220.55 343.678C222.37 342.841 224.205 342.03 226.102 341.363C225.242 341.886 224.36 342.355 223.499 342.868L220.878 344.325C219.135 345.303 217.371 346.24 215.609 347.181C213.836 348.103 212.07 349.037 210.271 349.913L207.575 351.232C206.662 351.643 205.764 352.085 204.838 352.477Z" fill="#685E68"/>
<path d="M161.747 342.981C164.969 342.968 175.01 343.556 179.798 339.512C183.67 336.241 185.374 325.071 186.042 322.006C186.075 321.854 186.296 321.906 186.3 322.048C186.403 325.485 185.912 328.986 185.001 332.299C184.223 335.128 183.175 338.286 180.89 340.269C178.485 342.355 175.219 343.088 172.141 343.468C168.666 343.897 165.201 343.795 161.74 343.324C161.525 343.295 161.521 342.982 161.747 342.981Z" fill="#685E68"/>
<path d="M226.947 305.892L222.088 330.519L143.212 322.438C143.212 322.438 172.049 262.646 196.561 243.981C206.311 236.557 214.312 239.873 219.96 246.903C221.248 248.507 235.668 278.944 236.077 289.332C236.412 297.861 226.947 305.892 226.947 305.892Z" fill="#FD8A78"/>
<path d="M150.65 308C150.76 310.07 150.85 312.13 150.59 314.19C150.17 317.5 148.52 321.59 144.87 322.35C144.3 322.47 143.75 322.49 143.22 322.42C143.23 322.39 143.26 322.34 143.29 322.27C144.39 322.41 145.54 322.18 146.67 321.42C150.37 318.93 150.68 313.81 150.55 309.8C150.53 309.31 150.51 308.81 150.48 308.32C150.53 308.22 150.59 308.11 150.65 308ZM159.58 292.09C159.53 292.18 159.48 292.26 159.43 292.34C162.53 292.85 164.62 296.03 164.92 299.11C165.35 303.42 162.78 307.38 160.56 310.85C158.44 314.14 156.26 317.6 156.12 321.63C156.09 322.34 156.13 323.06 156.22 323.77L156.53 323.8C156.38 322.68 156.38 321.54 156.53 320.43C157.08 316.27 159.73 312.82 161.87 309.35C163.87 306.12 165.81 302.29 165.1 298.38C164.58 295.49 162.59 292.62 159.58 292.09ZM181.7 306.82C179.72 304.44 176.34 303.05 173.58 305.03C171.27 306.7 170.75 309.86 170.9 312.52C171.13 316.42 173.15 319.93 173.57 323.8C173.63 324.38 173.65 324.98 173.62 325.56L173.96 325.59C174.17 322.05 172.47 318.62 171.65 315.24C170.94 312.34 170.82 308.56 172.84 306.13C173.94 304.82 175.67 304.14 177.37 304.42C179.22 304.72 180.8 306.02 181.88 307.51C184.6 311.26 183.72 315.98 183.21 320.27C182.96 322.37 182.83 324.49 183.15 326.53L183.44 326.56C182.97 323.67 183.46 320.69 183.8 317.74C184.04 315.62 184.2 313.46 183.83 311.34C183.54 309.68 182.77 308.11 181.7 306.82ZM193.88 306.37C191.82 303.83 189.14 301.86 186.05 300.77C182.37 299.48 178.38 299.31 174.76 297.83C172.93 297.09 171.3 295.96 170.04 294.44C168.76 292.89 167.89 291.05 167.28 289.15C166.49 286.69 166 283.96 166.15 281.31C166.04 281.47 165.94 281.63 165.84 281.8C165.79 283.4 165.97 285.02 166.28 286.56C166.99 290.16 168.49 293.87 171.41 296.24C174.32 298.6 178.12 299.19 181.67 299.92C183.57 300.32 185.47 300.76 187.24 301.54C188.82 302.24 190.27 303.19 191.56 304.33C196.69 308.89 199.09 316.15 198.64 322.9C198.52 324.59 198.22 326.38 197.6 328.01L197.89 328.04C198.2 327.23 198.42 326.39 198.58 325.55C199.82 318.95 198.13 311.61 193.88 306.37ZM189.28 277.28C188.37 275.67 187.22 274.23 186.03 272.82C183.66 270.04 180.94 267.25 180 263.61C179.84 262.99 179.74 262.35 179.72 261.71C179.63 261.81 179.55 261.92 179.47 262.03V262.08C179.77 265.53 181.89 268.39 184.05 270.95C185.26 272.38 186.52 273.77 187.63 275.28C188.89 277 189.89 278.88 190.54 280.91C191.63 284.3 192.25 289.08 189.9 292.12C188.74 293.61 186.83 294.18 185.08 293.43C183.31 292.66 182.02 290.92 181.54 289.08C180.44 284.94 182.21 280.66 181.28 276.48C180.92 274.85 180.14 273.29 178.79 272.26C177.66 271.41 176.27 271.02 174.86 271.03C174.13 271.03 173.41 271.14 172.72 271.33C172.63 271.46 172.54 271.59 172.45 271.72C173.26 271.45 174.13 271.31 175.03 271.32C176.81 271.34 178.5 272.06 179.61 273.48C180.81 275.02 181.19 277.02 181.24 278.93C181.34 282.91 179.79 287.48 182.05 291.12C182.89 292.47 184.21 293.65 185.79 294C187.25 294.33 188.74 293.83 189.77 292.76C192.13 290.31 192.01 286.25 191.43 283.16C191.03 281.1 190.31 279.11 189.28 277.28ZM202.51 260.44C202.14 255.9 200.62 251.52 200.61 246.94C200.6 244.93 200.97 242.79 201.82 240.91C201.68 240.96 201.55 241.02 201.41 241.08C200.78 242.57 200.44 244.18 200.34 245.76C200.04 250.32 201.52 254.73 202.07 259.2C202.33 261.28 202.4 263.42 202.03 265.49C201.85 266.51 201.56 267.52 201.13 268.47C200.75 269.33 200.19 270.58 199.25 270.95C198.24 271.34 197.32 270.54 196.79 269.75C196.18 268.83 195.99 267.79 195.91 266.71C195.74 264.37 196.13 262.04 196.17 259.7C196.23 256.46 195.35 252.6 192.07 251.18C191.15 250.78 190.17 250.6 189.2 250.62C189.11 250.71 189.02 250.8 188.93 250.9C190.56 250.8 192.17 251.23 193.46 252.4C196.61 255.25 195.85 260.07 195.62 263.82C195.51 265.76 195.38 268.03 196.43 269.76C197.1 270.85 198.43 271.89 199.71 271.06C200.42 270.6 200.87 269.72 201.23 268.98C201.65 268.15 201.95 267.27 202.17 266.36C202.62 264.43 202.67 262.42 202.51 260.44ZM210.44 283.03C213.71 281.67 215.95 278.6 217.75 275.67C219.8 272.31 221.33 268.63 223.52 265.35C224.42 263.99 225.59 262.59 227.08 261.84C227.05 261.78 227.03 261.72 227 261.66C225.33 262.52 223.93 264.2 222.98 265.7C220.87 269 219.31 272.63 217.22 275.95C215.28 279.02 212.77 282.23 209.09 283.16C207.52 283.56 205.68 283.5 204.47 282.3C203.04 280.89 203.09 278.69 203.63 276.89C204.49 274.03 206.78 271.95 209.1 270.21C211.53 268.4 214.15 266.84 216.41 264.81C219.01 262.47 220.67 259.54 221.26 256.07C221.62 253.97 221.66 251.76 221.42 249.58C221.25 249.24 221.1 248.94 220.95 248.66C221.5 252.57 221.35 256.81 219.53 260.38C218.02 263.33 215.38 265.39 212.73 267.26C210.32 268.95 207.75 270.54 205.75 272.73C203.85 274.79 202.34 277.86 203.18 280.71C204.14 283.97 207.77 284.14 210.44 283.03ZM233.11 277.16C232.17 279.56 230.81 281.79 229.08 283.72C226.37 286.74 222.8 288.89 218.9 289.98C216.98 290.51 214.99 290.78 213 290.78C210.78 290.77 208.66 290.25 206.48 289.95C204.62 289.69 202.79 289.79 201.08 290.6C199.57 291.32 198.27 292.5 197.43 293.94C196.48 295.57 196.09 297.63 196.75 299.42C197.23 300.74 198.25 301.77 199.5 302.38C202.38 303.79 205.71 303.17 208.36 301.57C210.03 300.56 211.49 299.25 212.93 297.94C214.46 296.55 216.03 294.86 217.99 294.1C221.49 292.74 224.5 295.96 224.93 299.24C225.42 303.03 222.39 306.08 219.3 307.72C216.1 309.42 212.44 309.72 209.14 311.15C206.25 312.41 204.02 314.8 204.04 318.11C204.1 325.05 212.46 331.02 218.95 328.12C220.69 327.34 222.11 326.06 223.27 324.55L223.4 323.87C221.6 326.34 219.13 328.36 215.96 328.55C211.98 328.79 208.01 326.42 205.92 323.11C204.04 320.13 203.57 316.14 206.19 313.43C208.65 310.89 212.51 310.39 215.75 309.44C218.96 308.5 222.25 306.81 224.08 303.89C225.72 301.28 225.61 298.03 223.68 295.6C222.86 294.57 221.72 293.75 220.41 293.53C218.66 293.24 217.05 294.09 215.71 295.14C212.58 297.57 210 300.89 206.19 302.32C203.34 303.39 199.23 303.03 197.46 300.23C195.08 296.44 198.44 291.73 202.13 290.5C204.3 289.78 206.52 290.23 208.71 290.64C210.63 290.99 212.55 291.16 214.51 291.03C222.15 290.52 229.09 286.01 232.55 279.16C232.8 278.66 233.04 278.14 233.26 277.62C233.21 277.46 233.16 277.31 233.11 277.16ZM235.09 285.84C235.25 285.77 235.4 285.7 235.56 285.64C235.54 285.55 235.52 285.45 235.5 285.36C234.46 285.73 233.49 286.32 232.67 287.23C231.68 288.31 230.97 289.77 231.08 291.27C231.19 292.64 231.98 293.83 233.09 294.61C233.63 294.98 234.2 295.27 234.8 295.5C234.84 295.4 234.89 295.3 234.93 295.2C234.33 294.98 233.76 294.7 233.24 294.33C231.79 293.32 231.07 291.59 231.53 289.86C232 288.08 233.44 286.59 235.09 285.84Z" fill="white"/>
<path d="M216.445 300.054C212.489 299.818 208.485 299.751 204.479 300.266C202.486 300.523 200.506 300.893 198.518 301.318C197.527 301.53 196.54 301.7 195.547 301.864C194.529 302.032 193.445 302.162 192.446 302.01C192.356 301.997 192.324 302.169 192.412 302.19C193.37 302.411 194.286 302.62 195.274 302.675C196.213 302.728 197.172 302.651 198.121 302.54C200.142 302.304 202.164 301.95 204.186 301.688C208.264 301.159 212.341 300.632 216.411 300.475C216.599 300.468 216.632 300.065 216.445 300.054Z" fill="#685E68"/>
<path d="M225.122 306.338C222.035 305.305 218.847 304.449 215.649 303.88C214.04 303.594 212.422 303.43 210.787 303.32C210.006 303.267 209.223 303.233 208.439 303.211C207.576 303.186 206.698 303.309 205.838 303.269C205.748 303.265 205.713 303.44 205.805 303.448C206.613 303.517 207.402 303.759 208.2 303.889C209.003 304.02 209.807 304.141 210.61 304.271C212.217 304.531 213.82 304.814 215.431 305.054C218.656 305.535 221.86 306.055 225.058 306.679C225.232 306.713 225.282 306.391 225.122 306.338Z" fill="#685E68"/>
<path d="M208.396 244.691C208.231 246.281 211.949 258.26 218.782 260.272C221.009 260.923 225.106 248.929 225.106 248.929L225.611 248.113L232.67 236.681L221.347 222.305L219.671 220.341C219.671 220.341 217.946 223.596 215.839 227.671C215.74 227.86 215.641 228.048 215.538 228.251C215.413 228.479 215.292 228.692 215.185 228.909C214.862 229.513 214.536 230.132 214.223 230.755C213.983 231.228 213.748 231.687 213.514 232.193C213.266 232.695 213.037 233.187 212.789 233.689C210.453 238.689 208.475 244.019 208.396 244.691Z" fill="#DF9990"/>
<path d="M215.838 227.67C215.975 238.76 222.462 245.506 225.61 248.112L232.669 236.68L221.346 222.304L219.67 220.34C219.67 220.34 217.945 223.596 215.838 227.67Z" fill="#685E68"/>
<path d="M256.916 223.961C250.422 246.629 236.112 245.299 231.225 243.893C226.789 242.617 211.847 237.708 215.964 214.491C220.082 191.273 232.674 187.127 242.973 189.509C253.273 191.89 263.41 201.293 256.916 223.961Z" fill="#DF9990"/>
<path d="M253.782 217.142C253.268 216.928 252.829 216.645 252.342 216.381C251.793 216.083 251.324 215.902 251.021 215.325C250.858 215.015 251.018 214.527 251.304 214.341C251.97 213.907 252.733 214.105 253.409 214.437C254.142 214.797 254.616 215.262 254.956 216.003C255.287 216.721 254.461 217.424 253.782 217.142Z" fill="#685E68"/>
<path d="M238.793 213.025C239.343 213.115 239.865 213.107 240.417 213.14C241.041 213.177 241.534 213.271 242.097 212.941C242.398 212.764 242.521 212.265 242.376 211.956C242.04 211.236 241.287 211.001 240.538 210.925C239.725 210.843 239.078 210.989 238.397 211.438C237.738 211.873 238.068 212.906 238.793 213.025Z" fill="#685E68"/>
<path d="M240.179 219.609C240.182 219.547 240.038 219.651 240.024 219.715C239.669 221.281 238.998 223.015 237.458 223.165C237.41 223.17 237.394 223.249 237.448 223.255C239.226 223.461 240.093 221.15 240.179 219.609Z" fill="#685E68"/>
<path d="M239.215 217.625C236.766 216.784 235.264 221.744 237.533 222.524C239.766 223.29 241.268 218.329 239.215 217.625Z" fill="#685E68"/>
<path d="M238.161 217.592C237.643 217.742 237.069 218.109 236.531 218.002C235.908 217.879 235.609 217.221 235.365 216.602C235.34 216.538 235.284 216.568 235.263 216.634C234.961 217.58 235.032 218.666 236.008 219.116C236.898 219.527 237.821 218.887 238.347 218.003C238.445 217.839 238.37 217.532 238.161 217.592Z" fill="#685E68"/>
<path d="M249.179 221.939C249.209 221.884 249.276 222.049 249.255 222.111C248.729 223.629 248.383 225.456 249.611 226.396C249.649 226.425 249.621 226.5 249.572 226.477C247.952 225.714 248.437 223.293 249.179 221.939Z" fill="#685E68"/>
<path d="M251.045 220.764C253.569 221.344 252.223 226.35 249.885 225.812C247.584 225.283 248.93 220.278 251.045 220.764Z" fill="#685E68"/>
<path d="M252 221.374C252.324 221.746 252.586 222.333 253.05 222.491C253.588 222.674 254.138 222.242 254.628 221.817C254.679 221.773 254.707 221.826 254.691 221.892C254.46 222.856 253.876 223.767 252.907 223.704C252.024 223.646 251.629 222.66 251.657 221.645C251.662 221.458 251.87 221.225 252 221.374Z" fill="#685E68"/>
<path d="M236.963 232.082C237.2 232.564 237.39 233.18 237.923 233.42C238.434 233.651 239.136 233.631 239.685 233.613C239.739 233.611 239.77 233.679 239.723 233.714C239.125 234.156 238.169 234.228 237.511 233.858C236.868 233.496 236.738 232.784 236.793 232.099C236.801 232.003 236.928 232.012 236.963 232.082Z" fill="#685E68"/>
<path d="M245.026 228.378C245.026 228.378 244.676 230.773 244.362 231.86C244.332 231.962 244.055 231.934 243.68 231.848C243.661 231.849 243.649 231.852 243.637 231.837C241.632 231.58 239.892 230.358 239.181 228.454C239.136 228.326 239.307 228.254 239.386 228.35C240.513 229.817 242.017 230.547 243.71 231.069C243.874 230.79 244.172 226.947 244.348 226.984C244.957 227.106 246.01 227.849 246.653 228.258C247.526 223.289 247.595 218.222 248.538 213.287C248.575 213.112 248.836 213.132 248.842 213.299C249.146 218.616 248.266 224.356 247.497 229.51C247.407 230.153 245.408 228.689 245.026 228.378Z" fill="#685E68"/>
<path d="M242.87 231.157C242.87 231.157 241.58 232.136 240.182 232.218C239.666 232.25 239.144 232.169 238.657 231.875C237.657 231.275 237.92 230.274 238.366 229.481C238.731 228.829 239.23 228.32 239.23 228.32C239.23 228.32 240.38 230.261 242.87 231.157Z" fill="#685E68"/>
<path d="M240.182 232.218C239.666 232.25 239.144 232.169 238.657 231.875C237.657 231.275 237.92 230.274 238.366 229.481C239.492 229.938 240.412 231.061 240.182 232.218Z" fill="#FF9CBD"/>
<path d="M214.94 218.402C218.831 219.6 221.61 211.503 221.61 211.503C221.61 211.503 229.652 213.34 234.913 202.367C234.913 202.367 233.526 207.714 229.196 211.133C229.196 211.133 243.722 212.825 252.372 202.298C252.372 202.298 248.627 207.809 245.907 209.456C245.907 209.456 252.232 209.137 256.223 204.958C256.223 204.958 257.163 212.371 258.649 214.695C258.649 214.695 263.656 189.737 240.063 187.196C240.063 187.196 225.447 184.907 217.708 195.142C209.967 205.375 214.94 218.402 214.94 218.402Z" fill="#685E68"/>
<path d="M224.377 212.88L219.132 206.665L217.596 208.185L223.494 213.716L224.377 212.88Z" fill="#FD8A78"/>
<path d="M223.022 214.457L216.756 209.273L215.515 211.042L222.302 215.437L223.022 214.457Z" fill="#FD8A78"/>
<path d="M219.068 217.264C219.068 217.264 216.893 208.55 213.117 209.071C209.342 209.591 209.142 220.938 212.282 223.703C215.422 226.468 218.038 223.611 218.038 223.611L219.068 217.264Z" fill="#DF9990"/>
<path d="M213.141 212.324C213.084 212.296 213.041 212.374 213.084 212.414C215.253 214.437 215.694 217.335 215.696 220.166C215.296 218.923 214.456 218.005 212.835 218.426C212.75 218.448 212.774 218.578 212.852 218.59C213.99 218.767 214.679 219.24 215.067 220.354C215.342 221.143 215.397 222.029 215.494 222.855C215.527 223.13 215.988 223.167 216.002 222.869C216.003 222.847 216.003 222.824 216.004 222.802C217.321 219.554 216.53 213.999 213.141 212.324Z" fill="#685E68"/>
<path d="M189.356 264.046C185.258 286.668 175.363 333.385 184.448 347.799C196.369 366.712 237.698 380.582 248.513 384.66C253.225 386.437 266.888 355.81 264.403 351.033C261.919 346.256 219.166 327.232 216.315 324.388C213.464 321.545 210.804 284.211 207.569 264.965C203.489 240.688 192.825 244.898 189.356 264.046Z" fill="#DF9990"/>
<path d="M267.765 355.576C265.84 353.876 266.719 352.854 271.277 353.115C275.889 353.368 293.655 358.275 294.838 351.914C296.037 345.533 270.781 339.003 263.158 339.151C255.533 339.281 243.255 342.209 243.255 342.209C247.913 344.469 258.686 351.027 267.765 355.576Z" fill="#DF9990"/>
<path d="M230.476 378.117C243.826 384.001 260.087 392.14 276.435 390.222C279.642 389.846 281.298 388.022 281.298 388.022C288.64 387.292 290.501 383.606 290.501 383.606C297.132 380.832 298.516 376.8 298.516 376.8C298.516 376.8 307.127 375.849 307.417 370.549C307.76 364.606 295.599 367.104 288.072 364.388C270.825 358.165 248.051 344.496 243.255 342.207L230.476 378.117Z" fill="#DF9990"/>
<path d="M265.415 370.571C270.527 372.301 275.504 374.134 280.823 375.163C286.66 376.292 292.465 376.399 298.374 376.656C298.559 376.664 298.566 376.921 298.383 376.942C287.615 378.171 275.011 375.633 265.333 370.802C265.099 370.685 265.158 370.484 265.415 370.571Z" fill="#685E68"/>
<path d="M260.146 380.434C265.214 381.842 274.136 384.258 290.493 383.431C290.546 383.428 290.568 383.518 290.51 383.529C279.961 385.479 270.054 384.37 260.079 380.675C259.77 380.561 259.809 380.341 260.146 380.434Z" fill="#685E68"/>
<path d="M257.414 385.788C266.122 387.854 271.874 388.053 281.261 387.985C281.314 387.985 281.329 388.077 281.271 388.084C270.61 389.282 266.607 388.508 257.301 386.078C256.981 385.994 257.074 385.707 257.414 385.788Z" fill="#685E68"/>
<path d="M213.072 291.306L179.42 301.389C179.42 301.389 186.771 263.46 192.081 252.916C198.057 241.049 202.818 246.7 206.879 258.658C210.94 270.616 213.072 291.306 213.072 291.306Z" fill="#FD8A78"/>
<path d="M179.84 299.26C181.15 299.53 182.46 299.78 183.75 300.09L183.2 300.26C182.69 300.14 182.18 300.03 181.67 299.92C181.05 299.79 180.42 299.67 179.79 299.54C179.8 299.45 179.82 299.36 179.84 299.26ZM189.28 277.28C188.37 275.67 187.22 274.23 186.03 272.82L185.82 272.58C185.79 272.69 185.76 272.8 185.73 272.91C186.39 273.68 187.03 274.46 187.63 275.28C188.89 277 189.89 278.88 190.54 280.91C191.63 284.3 192.25 289.08 189.9 292.12C188.74 293.61 186.83 294.18 185.08 293.43C183.56 292.77 182.4 291.4 181.8 289.86C181.76 290.05 181.72 290.25 181.68 290.44C181.79 290.67 181.91 290.9 182.05 291.12C182.89 292.47 184.21 293.65 185.79 294C187.25 294.33 188.74 293.83 189.77 292.76C192.13 290.31 192.01 286.25 191.43 283.16C191.03 281.1 190.31 279.11 189.28 277.28ZM202.51 260.44C202.15 255.96 200.66 251.64 200.61 247.13C200.51 247.04 200.4 246.97 200.3 246.92C200.29 251.07 201.57 255.11 202.07 259.2C202.33 261.28 202.4 263.42 202.03 265.49C201.85 266.51 201.56 267.52 201.13 268.47C200.75 269.33 200.19 270.58 199.25 270.95C198.24 271.34 197.32 270.54 196.79 269.75C196.18 268.83 195.99 267.79 195.91 266.71C195.74 264.37 196.13 262.04 196.17 259.7C196.23 256.71 195.48 253.2 192.8 251.57C192.75 251.65 192.71 251.73 192.67 251.81C192.94 251.98 193.21 252.17 193.46 252.4C196.61 255.25 195.85 260.07 195.62 263.82C195.51 265.76 195.38 268.03 196.43 269.76C197.1 270.85 198.43 271.89 199.71 271.06C200.42 270.6 200.87 269.72 201.23 268.98C201.65 268.15 201.95 267.27 202.17 266.36C202.62 264.43 202.67 262.42 202.51 260.44ZM210.44 283.03C210.96 282.81 211.45 282.56 211.92 282.26C211.9 282.15 211.89 282.04 211.87 281.93C211.02 282.48 210.1 282.91 209.09 283.16C207.52 283.56 205.68 283.5 204.47 282.3C203.04 280.89 203.09 278.69 203.63 276.89C204.49 274.03 206.78 271.95 209.1 270.21C209.31 270.05 209.53 269.89 209.75 269.74C209.73 269.62 209.71 269.5 209.68 269.39C208.27 270.38 206.91 271.46 205.75 272.73C203.85 274.79 202.34 277.86 203.18 280.71C204.14 283.97 207.77 284.14 210.44 283.03ZM213.01 290.78H213C210.78 290.77 208.66 290.25 206.48 289.95C204.62 289.69 202.79 289.79 201.08 290.6C199.57 291.32 198.27 292.5 197.43 293.94C197.01 294.65 196.7 295.44 196.55 296.26L196.82 296.18C197.42 293.62 199.71 291.3 202.13 290.5C204.3 289.78 206.52 290.23 208.71 290.64C210.15 290.9 211.59 291.06 213.05 291.07C213.04 291 213.03 290.9 213.01 290.78Z" fill="white"/>
<path d="M210.064 285.574C205.605 286.277 192.53 290.273 190.362 290.911C189.219 291.248 184.719 292.792 183.576 293.118C183.43 293.16 183.522 293.378 183.667 293.337C185.847 292.713 188.098 292.315 190.288 291.707C192.529 291.085 205.926 287.516 210.11 285.744C210.202 285.706 210.165 285.559 210.064 285.574Z" fill="#685E68"/>
<path d="M187.234 267.674C187.266 267.513 187.036 267.48 186.99 267.628C186.004 270.76 185.099 273.919 184.243 277.091C184.278 275.37 184.523 273.683 184.873 271.976C184.888 271.9 184.777 271.882 184.757 271.954C184.234 273.856 184.055 275.88 184.038 277.861C183.448 280.073 182.876 282.29 182.332 284.513C180.946 290.169 179.49 295.825 178.432 301.553C178.376 301.858 178.675 302.098 178.962 302.002C180.119 301.613 181.26 301.197 182.389 300.73C182.506 300.682 182.476 300.478 182.338 300.501C181.34 300.668 180.356 300.887 179.372 301.111C180.856 295.683 182.062 290.18 183.39 284.713C184.764 279.056 186.088 273.382 187.234 267.674Z" fill="#685E68"/>
<path d="M211.563 276.302C211.493 274.449 211.42 272.597 211.287 270.745C211.284 270.706 211.228 270.712 211.228 270.75C211.226 272.115 211.257 273.478 211.297 274.841C210.788 272.165 210.231 269.502 209.555 266.878C209.545 266.839 209.482 266.854 209.487 266.893C209.919 270.99 210.576 275.062 211.105 279.148C211.624 283.158 212.209 287.153 212.8 291.152C212.07 291.501 211.334 291.832 210.591 292.155C210.449 292.217 210.526 292.414 210.673 292.377C211.533 292.162 212.391 291.951 213.26 291.775C213.465 291.734 213.639 291.584 213.617 291.353C213.132 286.337 212.459 281.295 211.563 276.302Z" fill="#685E68"/>
<path d="M390.068 408.206C386.86 402.662 363.591 384.443 354.473 389.712C345.356 394.981 341.086 421.38 358.441 441.625C358.441 441.625 349.665 442.764 347.893 443.736C346.12 444.709 343.816 448.425 344.5 449.459C345.184 450.494 351.938 452.667 353.688 452.891C355.437 453.115 376.867 450.355 378.485 449.745C380.103 449.136 378.255 446.852 378.255 446.852C378.255 446.852 394.262 447.526 398.692 444.007C403.121 440.488 394.979 416.692 390.068 408.206Z" fill="#FD8A78"/>
<path opacity="0.1" d="M390.068 408.206C386.86 402.662 363.591 384.443 354.473 389.712C345.356 394.981 341.086 421.38 358.441 441.625C358.441 441.625 349.665 442.764 347.893 443.736C346.12 444.709 343.816 448.425 344.5 449.459C345.184 450.494 351.938 452.667 353.688 452.891C355.437 453.115 376.867 450.355 378.485 449.745C380.103 449.136 378.255 446.852 378.255 446.852C378.255 446.852 394.262 447.526 398.692 444.007C403.121 440.488 394.979 416.692 390.068 408.206Z" fill="black"/>
<path d="M349.453 444.548C348.903 444.832 348.312 445.027 347.859 445.463C347.394 445.911 347.006 446.452 346.743 447.029C346.448 447.676 346.256 448.381 346.21 449.089C346.173 449.657 346.13 450.354 346.496 450.84C346.573 450.943 346.757 450.849 346.723 450.732C346.56 450.176 347.395 447.867 347.626 447.319C347.831 446.834 348.051 446.377 348.358 445.943C348.678 445.492 349.005 444.947 349.523 444.679C349.611 444.635 349.541 444.503 349.453 444.548Z" fill="#685E68"/>
<path d="M354.121 445.711C353.472 445.977 352.864 446.214 352.311 446.659C351.766 447.098 351.327 447.647 351.009 448.268C350.406 449.444 350.131 451.115 351.031 452.222C351.075 452.276 351.182 452.229 351.158 452.158C350.954 451.551 351.044 450.845 351.193 450.232C351.332 449.659 351.513 449.078 351.778 448.549C352.037 448.032 352.365 447.536 352.736 447.092C353.133 446.616 353.625 446.115 354.192 445.849C354.283 445.807 354.212 445.674 354.121 445.711Z" fill="#685E68"/>
<path d="M412.642 434.8C415.545 432.601 430.344 433.63 439.616 423.853C448.888 414.076 447.4 403.683 447.4 403.683C447.4 403.683 454.11 417.058 444.665 431.097C435.22 445.136 422.44 445.745 422.44 445.745L412.642 434.8Z" fill="#FD8A78"/>
<path d="M346.35 348.881C343.427 350.677 324.589 366.973 323.468 369.009C322.347 371.045 318.357 376.881 316.855 376.896C315.353 376.911 308.578 361.809 306.737 360.389C304.896 358.97 294.901 357.96 293.62 358.613C292.339 359.266 287.969 360.949 288.445 362.824C288.921 364.699 298.838 368.214 299.376 369.561C299.914 370.908 302.625 386.286 304.97 388.127C307.315 389.968 319.556 395.575 322.326 395.685C325.096 395.795 353.763 386.57 354.556 384.493C355.349 382.417 347.685 348.061 346.35 348.881Z" fill="#FD8A78"/>
<path opacity="0.1" d="M346.35 348.881C343.427 350.677 324.589 366.973 323.468 369.009C322.347 371.045 318.357 376.881 316.855 376.896C315.353 376.911 308.578 361.809 306.737 360.389C304.896 358.97 294.901 357.96 293.62 358.613C292.339 359.266 287.969 360.949 288.445 362.824C288.921 364.699 298.838 368.214 299.376 369.561C299.914 370.908 302.625 386.286 304.97 388.127C307.315 389.968 319.556 395.575 322.326 395.685C325.096 395.795 353.763 386.57 354.556 384.493C355.349 382.417 347.685 348.061 346.35 348.881Z" fill="black"/>
<path d="M294.897 361.229C293.927 361.371 292.92 361.61 292.087 362.148C291.262 362.682 290.509 363.456 290.233 364.423C290.191 364.57 290.374 364.685 290.487 364.581C291.831 363.353 293.099 361.865 294.932 361.38C295.03 361.354 294.995 361.215 294.897 361.229Z" fill="#685E68"/>
<path d="M297.744 362.988C296.78 363.135 295.83 363.4 295.031 363.976C294.238 364.548 293.642 365.309 293.273 366.212C293.219 366.344 293.413 366.455 293.508 366.358C294.135 365.719 294.816 365.117 295.53 364.577C296.25 364.032 296.961 363.486 297.798 363.132C297.884 363.095 297.826 362.975 297.744 362.988Z" fill="#685E68"/>
<path d="M337.336 284.63C332.106 288.347 323.295 296.598 319.46 303.791C315.91 310.451 311.125 321.991 320.15 326.406C329.831 331.143 338.873 324.653 341.852 314.968C344.831 305.284 345.106 292.727 345.106 292.727" fill="#FD8A78"/>
<path opacity="0.1" d="M337.336 284.63C332.106 288.347 323.295 296.598 319.46 303.791C315.91 310.451 311.125 321.991 320.15 326.406C329.831 331.143 338.873 324.653 341.852 314.968C344.831 305.284 345.106 292.727 345.106 292.727" fill="black"/>
<path d="M424.18 447.057C422.292 451.692 389.024 448.852 383.926 447.142C381.184 446.238 374.184 432.804 367.16 420.417C361.056 409.708 354.64 398.433 350.069 392.974C345.62 387.676 337.847 383.778 335.927 373.741C335.898 364.029 340.494 339.756 339.941 339.334C339.305 338.837 320.741 336.782 314.556 334.988C308.375 333.175 300.945 315.035 302.282 312.167C303.678 309.195 322.984 308.628 325.58 306.615C328.162 304.58 333.073 287.941 338.251 283.895C343.448 279.852 361.539 283.154 371.274 289.134C377.893 293.186 386.469 335.948 390.621 345.39C390.621 345.39 390.617 345.409 390.632 345.431C390.996 345.931 391.512 346.636 392.113 347.494C397.547 355.103 411.502 374.589 419.108 384.865C422.23 389.061 423.875 400.747 424.561 412.761C425.417 427.483 425.24 444.501 424.18 447.057Z" fill="#FD8A78"/>
<path opacity="0.1" d="M350.876 369.847C350.328 370.54 349.798 371.25 349.263 371.954C349.412 371.096 349.451 370.216 349.417 369.386C349.38 368.48 349.24 367.579 349.074 366.688C348.897 365.737 348.583 364.838 348.344 363.91C348.292 363.709 347.995 363.728 347.947 363.92C347.635 365.151 346.783 366.332 346.018 367.325C345.609 367.856 345.153 368.343 344.666 368.798C345.537 365.917 346.122 362.959 346.254 359.94C346.331 358.182 346.267 356.429 346.009 354.687C345.758 352.991 345.406 351.282 344.643 349.736C344.605 349.658 344.464 349.698 344.477 349.785C344.725 351.464 345.054 353.123 345.15 354.821C345.246 356.533 345.204 358.262 345.045 359.969C344.72 363.438 343.97 366.876 343.068 370.237C342.955 370.657 343.499 371.138 343.88 370.83C344.96 369.96 345.902 368.96 346.682 367.81C347.28 366.929 347.626 365.99 347.975 365.028C347.984 365.564 347.988 366.101 348.008 366.635C348.039 367.491 348.055 368.342 348.05 369.198C348.045 370.052 347.999 370.903 347.895 371.751C347.787 372.631 347.598 373.464 347.428 374.33C347.331 374.824 348.011 375.126 348.268 374.66C349.141 373.069 350.161 371.56 351.092 370.003C351.164 369.875 350.971 369.727 350.876 369.847Z" fill="black"/>
<path opacity="0.1" d="M411.896 381.644C411.142 380.873 410.156 380.307 409.318 379.627C408.899 379.287 408.456 378.931 408.034 378.553C409.088 378.708 410.199 378.566 411.162 378.181C411.728 377.954 411.727 377.192 411.133 376.999C406.928 375.637 402.799 372.953 400.14 369.38C400.081 369.301 399.952 369.376 400.007 369.462C401.29 371.496 402.728 373.286 404.599 374.818C405.917 375.897 407.384 376.764 408.936 377.448C408.157 377.486 407.377 377.357 406.566 377.094C406.133 376.954 405.8 377.578 406.14 377.869C407.059 378.656 407.871 379.549 408.826 380.303C409.678 380.977 410.62 381.731 411.67 382.055C411.913 382.129 412.056 381.807 411.896 381.644Z" fill="black"/>
<path d="M345.321 307.788C345.364 307.695 345.514 307.958 345.488 308.062C344.834 310.606 344.556 313.638 346.913 315.05C346.986 315.094 346.949 315.221 346.858 315.188C343.841 314.106 344.254 310.086 345.321 307.788Z" fill="#685E68"/>
<path d="M348.422 305.662C353.014 306.344 351.547 314.694 347.293 314.062C343.107 313.44 344.573 305.09 348.422 305.662Z" fill="#685E68"/>
<path d="M332.467 303.414C332.482 303.313 332.238 303.465 332.204 303.568C331.394 306.065 330.058 308.798 327.594 308.862C327.518 308.864 327.48 308.991 327.565 309.007C330.35 309.547 332.088 305.902 332.467 303.414Z" fill="#685E68"/>
<path d="M331.25 300.086C327.501 298.438 324.34 306.305 327.814 307.831C331.232 309.333 334.393 301.467 331.25 300.086Z" fill="#685E68"/>
<path d="M309.51 322.728C309.894 323.864 310.368 324.965 310.934 326.04C311.242 326.573 311.507 327.106 312.125 327.548C312.211 327.599 312.315 327.648 312.445 327.668C312.552 327.702 312.808 327.652 312.909 327.542C313.119 327.345 313.166 327.176 313.234 327.014C313.349 326.691 313.407 326.386 313.461 326.079C313.657 324.859 313.706 323.656 313.72 322.452C313.74 321.248 313.717 320.051 313.658 318.846L312.63 319.019C313.095 320.691 313.636 322.326 314.229 323.956C314.53 324.769 314.86 325.572 315.221 326.369C315.593 327.166 315.966 327.951 316.604 328.687C316.771 328.855 317.011 329.085 317.358 329.139C317.658 329.179 317.892 329.141 318.121 329.098C318.577 329.01 318.995 328.874 319.409 328.728C320.232 328.43 321.032 328.099 321.81 327.722C323.365 326.969 324.896 326.182 326.379 325.306C324.797 325.984 323.225 326.677 321.62 327.277C320.817 327.571 320.021 327.883 319.211 328.12C318.808 328.239 318.399 328.346 318.008 328.4C317.815 328.43 317.614 328.436 317.49 328.41C317.406 328.394 317.316 328.306 317.193 328.166C316.742 327.566 316.412 326.756 316.083 325.991C315.76 325.211 315.478 324.408 315.197 323.605C314.633 321.999 314.131 320.358 313.637 318.73L312.374 314.565L312.608 318.902C312.672 320.081 312.721 321.272 312.755 322.454C312.771 323.635 312.803 324.826 312.709 325.977C312.682 326.261 312.644 326.548 312.576 326.794C312.547 326.911 312.485 327.033 312.475 327.043C312.553 327.013 312.529 327.049 312.426 326.998C312.037 326.779 311.666 326.246 311.33 325.79C310.655 324.829 310.087 323.775 309.51 322.728Z" fill="#685E68"/>
<path d="M313.321 319.692C314.745 319.881 322.135 317.396 321.745 315.559C321.077 312.412 308.061 310.086 306.365 312.1C305.26 313.413 311.488 319.449 313.321 319.692Z" fill="#685E68"/>
<path d="M355.622 337.043C355.701 337.018 355.673 336.888 355.59 336.9C354.319 337.086 353.049 337.331 351.789 337.58C350.475 337.84 349.147 337.975 347.823 338.163C345.213 338.534 342.619 339.004 340.002 339.318C339.916 339.328 339.908 339.456 339.996 339.472C342.59 339.933 345.193 339.782 347.753 339.213C349.096 339.125 350.437 339.034 351.777 338.904C351.901 338.892 351.883 338.704 351.759 338.711C350.782 338.769 349.807 338.847 348.833 338.932C349.784 338.674 350.727 338.387 351.681 338.141C352.998 337.8 354.324 337.452 355.622 337.043Z" fill="#685E68"/>
<path d="M371.736 289.662C376.849 293.539 385.4 302.059 389.01 309.367C392.352 316.133 396.778 327.816 387.621 331.95C377.798 336.385 368.961 329.618 366.283 319.846C363.605 310.074 363.719 297.515 363.719 297.515" fill="#FD8A78"/>
<path d="M386.813 332.149C381.909 334.888 375.754 332.592 372.205 328.72C368.108 324.251 366.541 317.973 365.412 312.18C364.655 308.3 364.307 304.371 364.043 300.431C364.03 300.236 363.763 300.251 363.746 300.438C363.564 302.445 363.557 304.456 363.658 306.464C363.532 306.134 363.405 305.805 363.287 305.472C362.909 304.406 362.584 303.316 362.352 302.209C362.342 302.162 362.265 302.175 362.268 302.223C362.34 303.372 362.506 304.506 362.815 305.615C362.969 306.166 363.154 306.706 363.389 307.227C363.494 307.459 363.622 307.678 363.754 307.896C363.848 309.113 363.967 310.329 364.131 311.54C364.588 314.911 365.316 318.264 366.484 321.464C367.533 324.337 368.953 327.108 371.026 329.381C372.968 331.51 375.446 333.006 378.248 333.698C381.222 334.433 384.352 334.055 386.895 332.282C386.978 332.224 386.902 332.099 386.813 332.149Z" fill="#685E68"/>
<path d="M346.92 383.376C347.44 387.265 349.182 444.036 349.158 444.82C349.134 445.604 344.247 447.27 343.241 448.876C342.235 450.482 341.136 453.298 341.724 454.081C342.312 454.864 347.957 456.364 349.659 456.693C351.361 457.022 359.928 455.178 361.237 454.577C362.546 453.976 363.398 448.589 363.581 447.916C363.764 447.243 374.57 406.744 374.469 403.145C374.367 399.546 346.92 383.376 346.92 383.376Z" fill="#FD8A78"/>
<path d="M347.561 387.863C347.37 384.358 347.021 380.866 346.793 377.363C346.788 377.28 346.662 377.271 346.661 377.357C346.641 379.712 346.604 382.069 346.624 384.424C346.502 383.917 346.378 383.41 346.274 382.897C346.011 381.598 345.802 380.28 345.663 378.962C345.657 378.91 345.571 378.918 345.571 378.97C345.574 380.319 345.679 381.65 345.916 382.978C346.086 383.928 346.316 384.905 346.643 385.832C346.657 386.537 346.673 387.242 346.703 387.946C346.853 391.408 346.986 394.928 347.672 398.332C347.69 398.419 347.82 398.405 347.825 398.318C348.038 394.843 347.751 391.336 347.561 387.863Z" fill="#685E68"/>
<path d="M379.794 395.593C379.079 397.23 378.337 398.87 377.523 400.46C377.232 401.027 376.89 401.588 376.574 402.159C377.345 399.362 378.09 396.558 378.772 393.737C378.788 393.67 378.693 393.637 378.669 393.703C377.015 398.332 375.532 403.021 374.068 407.712C373.342 410.037 372.61 412.368 371.976 414.719C371.357 417.018 370.557 419.375 370.278 421.745C370.269 421.819 370.386 421.859 370.421 421.791C371.483 419.659 372.106 417.259 372.847 415.002C373.606 412.688 374.271 410.336 374.938 407.994C375.357 406.521 375.773 405.047 376.184 403.572C376.385 403.184 376.626 402.813 376.846 402.442C377.282 401.705 377.692 400.951 378.08 400.187C378.829 398.714 379.439 397.213 379.914 395.629C379.936 395.553 379.826 395.521 379.794 395.593Z" fill="#685E68"/>
<path d="M345.845 448.713C345.299 449.005 344.711 449.21 344.265 449.652C343.807 450.107 343.428 450.654 343.173 451.235C342.888 451.887 342.706 452.594 342.671 453.303C342.642 453.872 342.61 454.569 342.984 455.05C343.063 455.151 343.246 455.055 343.21 454.938C343.038 454.385 343.838 452.063 344.061 451.512C344.258 451.024 344.472 450.563 344.772 450.125C345.085 449.669 345.404 449.119 345.918 448.844C346.005 448.798 345.932 448.667 345.845 448.713Z" fill="#685E68"/>
<path d="M350.532 449.805C349.887 450.081 349.282 450.327 348.736 450.78C348.198 451.227 347.767 451.782 347.458 452.409C346.873 453.594 346.623 455.269 347.54 456.362C347.585 456.416 347.691 456.367 347.666 456.296C347.453 455.693 347.533 454.985 347.672 454.37C347.802 453.795 347.974 453.211 348.231 452.678C348.482 452.157 348.803 451.656 349.167 451.207C349.557 450.725 350.042 450.216 350.604 449.942C350.694 449.898 350.622 449.767 350.532 449.805Z" fill="#685E68"/>
<path opacity="0.1" d="M360.614 432.426C360.604 432.14 360.135 432.071 360.047 432.346C359.772 433.212 359.319 433.981 358.712 434.624C359.06 431.569 359.153 428.405 357.678 425.618C357.631 425.53 357.501 425.58 357.533 425.677C358.617 428.944 358.062 432.448 357.566 435.771C357.498 436.226 358.008 436.46 358.359 436.239C359.121 435.759 359.732 435.085 360.127 434.3C360.192 435.497 360.263 436.696 360.409 437.881C360.432 438.071 360.753 438.086 360.757 437.883C360.802 436.068 360.675 434.24 360.614 432.426Z" fill="black"/>
<path d="M410.421 411.625C407.129 406.131 383.586 388.266 374.55 393.674C365.514 399.081 361.646 425.542 379.306 445.521C379.306 445.521 370.549 446.793 368.791 447.792C367.033 448.792 364.785 452.542 365.485 453.566C366.185 454.59 372.971 456.661 374.724 456.858C376.477 457.056 397.862 453.97 399.47 453.336C401.078 452.702 399.196 450.447 399.196 450.447C399.196 450.447 415.211 450.878 419.587 447.291C423.962 443.705 415.459 420.035 410.421 411.625Z" fill="#FD8A78"/>
<path d="M370.362 448.58C369.816 448.872 369.228 449.077 368.782 449.519C368.324 449.974 367.944 450.521 367.69 451.102C367.405 451.754 367.224 452.461 367.188 453.17C367.159 453.738 367.127 454.436 367.501 454.917C367.58 455.018 367.762 454.921 367.726 454.805C367.554 454.252 368.354 451.93 368.578 451.379C368.775 450.891 368.989 450.43 369.289 449.992C369.602 449.536 369.921 448.986 370.435 448.711C370.521 448.665 370.449 448.534 370.362 448.58Z" fill="#685E68"/>
<path d="M375.047 449.672C374.402 449.948 373.798 450.194 373.251 450.647C372.713 451.094 372.282 451.649 371.973 452.276C371.388 453.461 371.138 455.136 372.055 456.229C372.1 456.283 372.206 456.234 372.181 456.163C371.968 455.56 372.047 454.852 372.187 454.237C372.317 453.661 372.489 453.078 372.746 452.545C372.997 452.024 373.318 451.523 373.682 451.074C374.072 450.592 374.557 450.083 375.119 449.809C375.21 449.765 375.138 449.633 375.047 449.672Z" fill="#685E68"/>
<path d="M407.524 408.185C405.58 405.961 403.46 403.931 401.201 402.082C401.381 402.16 401.562 402.236 401.739 402.323C402.808 402.847 403.868 403.392 404.918 403.956C404.99 403.994 405.081 403.904 405.016 403.837C404.157 402.957 403.131 402.265 401.996 401.822C401.422 401.598 400.832 401.403 400.236 401.249C400.209 401.242 400.179 401.234 400.151 401.227C397.488 399.159 394.633 397.353 391.617 395.827C386.138 393.055 378.614 389.833 373.341 394.777C370.997 396.975 369.598 400.107 368.609 403.147C367.475 406.633 366.909 410.314 366.84 413.981C366.7 421.356 368.561 428.618 371.447 435.313C372.913 438.714 374.864 441.798 377.645 444.209C378.956 445.346 380.385 446.306 381.918 447.096C383.492 447.908 385.135 448.365 386.829 448.819C386.924 448.844 386.971 448.696 386.876 448.669C384.08 447.897 381.376 446.187 379.152 444.311C376.803 442.329 374.864 439.856 373.465 437.082C371.89 433.96 370.706 430.578 369.779 427.194C368.873 423.887 368.242 420.477 368.049 417.04C367.849 413.482 368.083 409.868 368.886 406.392C369.614 403.24 370.734 400.025 372.626 397.398C374.451 394.864 377.012 393.317 380.12 393.399C383.347 393.484 386.478 394.856 389.399 396.144C396.007 399.058 402.145 403.269 407.395 408.309C407.476 408.386 407.601 408.273 407.524 408.185Z" fill="#685E68"/>
<path d="M398.229 447.556C398.257 447.052 398.229 446.559 398.1 446.056C397.937 445.42 397.723 444.808 397.448 444.212C397.416 444.142 397.309 444.196 397.328 444.266C397.499 444.884 397.647 445.514 397.745 446.148C397.78 446.375 397.822 446.597 397.865 446.82C397.824 446.743 397.791 446.662 397.749 446.585C397.058 445.331 396.326 444.092 395.581 442.87C395.556 442.83 395.484 442.859 395.503 442.905C396.054 444.246 396.595 445.594 397.17 446.926C397.452 447.58 397.765 448.223 398.091 448.857C398.363 449.386 398.647 450.021 399.144 450.373C399.197 450.41 399.257 450.355 399.26 450.303C399.293 449.688 398.943 449.033 398.69 448.487C398.544 448.172 398.381 447.867 398.229 447.556Z" fill="#685E68"/>
<path opacity="0.1" d="M410.212 415.813C408.83 415.522 407.463 415.246 406.195 414.59C404.914 413.927 403.906 412.917 402.966 411.844C402.899 411.767 402.796 411.881 402.858 411.957C403.79 413.092 404.682 414.27 405.916 415.096C406.641 415.582 407.46 415.953 408.302 416.251C407.918 416.318 407.531 416.365 407.146 416.369C406.441 416.376 405.462 416.208 405.07 415.542C404.979 415.388 404.714 415.499 404.779 415.673C405.341 417.193 406.444 418.757 407.876 419.68C407.339 419.668 406.801 419.566 406.311 419.396C406.169 419.347 406.095 419.563 406.217 419.634C407.209 420.208 408.23 420.346 409.357 420.336C409.808 420.332 409.917 419.734 409.558 419.514C408.693 418.983 407.813 418.531 407.034 417.866C406.68 417.563 406.355 417.225 406.049 416.871C407.306 417.436 409.036 417.192 410.236 416.741C410.654 416.584 410.706 415.917 410.212 415.813Z" fill="black"/>
</svg>
